<svg width="973" height="564" viewBox="0 0 973 564" fill="none" xmlns="http://www.w3.org/2000/svg">
<g clip-path="url(#clip0)">
<path d="M963.51 501.562H0V503.803H963.51V501.562Z" fill="#3F3D56"/>
<path d="M124.678 96.6941C116.405 77.1739 95.3454 73.4873 95.3454 73.4873C95.3454 73.4873 75.0681 68.0778 58.1339 93.8404C42.3499 117.853 21.9954 140.351 47.8089 149.936L54.6275 135.616L55.4455 152.096C59.1992 152.878 62.9928 153.454 66.8094 153.821C95.4415 156.729 122.432 161.566 122.932 151.218C123.596 137.463 132.638 115.477 124.678 96.6941Z" fill="#252344"/>
<path d="M37.3241 253.016L35.4817 299.997C35.4817 299.997 16.1366 337.766 31.7969 336.845C47.4572 335.924 45.6149 299.997 45.6149 299.997L51.142 255.78L37.3241 253.016Z" fill="#FFB8B8"/>
<path d="M143.262 244.726L148.789 291.707C148.789 291.707 165.37 316.579 152.474 324.87C139.577 333.16 139.577 295.391 139.577 295.391L125.759 247.489L143.262 244.726Z" fill="#FFB8B8"/>
<path d="M123.917 332.239L107.335 396.723C107.335 396.723 99.9654 422.516 89.8323 435.413L86.1475 442.783L71.4083 440.94L81.5415 399.487L87.9899 323.027L123.917 332.239Z" fill="#FFB8B8"/>
<path opacity="0.1" d="M123.917 332.239L107.335 396.723C107.335 396.723 99.9654 422.516 89.8323 435.413L86.1475 442.783L71.4083 440.94L81.5415 399.487L87.9899 323.027L123.917 332.239Z" fill="black"/>
<path d="M67.7619 430.656L92.9547 436.489L82.5717 460.965C82.5717 460.965 86.7917 475.618 82.7719 483.378C78.752 491.138 79.3321 505.217 79.3321 505.217L73.8722 504.357C73.8722 504.357 60.6161 529.313 44.9531 522.184C29.2901 515.054 45.9496 498.094 45.9496 498.094C45.9496 498.094 59.4924 471.318 61.2123 460.399C62.9321 449.479 67.7619 430.656 67.7619 430.656Z" fill="#252344"/>
<path opacity="0.1" d="M67.7619 430.656L92.9547 436.489L82.5717 460.965C82.5717 460.965 86.7917 475.618 82.7719 483.378C78.752 491.138 79.3321 505.217 79.3321 505.217L73.8722 504.357C73.8722 504.357 60.6161 529.313 44.9531 522.184C29.2901 515.054 45.9496 498.094 45.9496 498.094C45.9496 498.094 59.4924 471.318 61.2123 460.399C62.9321 449.479 67.7619 430.656 67.7619 430.656Z" fill="black"/>
<path d="M46.5361 318.421L60.354 387.511C60.354 387.511 55.748 421.595 61.2752 442.783L66.8024 463.049H85.2263V388.432C85.2263 388.432 86.1475 327.633 83.3839 323.027C80.6203 318.421 46.5361 318.421 46.5361 318.421Z" fill="#FFB8B8"/>
<path d="M88.9111 455.68L63.1176 457.522L69.566 483.315C69.566 483.315 63.1176 497.133 65.8812 505.424C68.6448 513.715 65.8812 527.533 65.8812 527.533H71.4084C71.4084 527.533 80.6204 554.248 97.2019 549.642C113.783 545.036 99.9655 525.69 99.9655 525.69C99.9655 525.69 90.7535 497.133 90.7535 486.079C90.7535 475.025 88.9111 455.68 88.9111 455.68Z" fill="#252344"/>
<path d="M95.3595 136.946C109.096 136.946 120.232 125.81 120.232 112.073C120.232 98.3368 109.096 87.2011 95.3595 87.2011C81.6229 87.2011 70.4872 98.3368 70.4872 112.073C70.4872 125.81 81.6229 136.946 95.3595 136.946Z" fill="#FFB8B8"/>
<path d="M78.3173 121.746C78.3173 121.746 80.1597 153.067 74.6326 154.909C69.1054 156.751 103.19 154.909 103.19 154.909C103.19 154.909 98.5836 135.564 103.19 130.037C107.796 124.51 78.3173 121.746 78.3173 121.746Z" fill="#FFB8B8"/>
<path d="M103.65 149.842C103.65 149.842 79.6991 148 75.0932 149.842C70.4872 151.685 57.5904 160.897 57.5904 160.897L64.0388 218.932L116.547 229.986L124.838 218.011L133.128 200.508L129.444 178.4L128.522 165.503L103.65 149.842Z" fill="#28C6D0"/>
<path d="M52.9844 164.582C52.9844 164.582 41.0089 167.345 40.0877 176.557C39.1665 185.769 39.1665 208.799 40.0877 212.484C41.0089 216.169 40.0877 218.011 39.1665 218.932C38.2453 219.853 36.4029 218.011 38.2453 220.775C40.0877 223.538 40.0877 223.538 39.1665 226.302C38.2453 229.065 35.4817 225.381 37.3241 229.986C39.1665 234.592 40.0877 235.514 39.1665 236.435C38.2453 237.356 35.4817 258.544 35.4817 258.544L51.142 261.307L66.8024 206.957L52.9844 164.582Z" fill="#28C6D0"/>
<path d="M124.838 164.582C126.587 164.679 128.279 165.243 129.736 166.215C131.194 167.187 132.366 168.531 133.128 170.109C135.892 175.636 143.262 211.563 142.34 214.326C141.419 217.09 139.577 213.405 141.419 218.932C143.262 224.459 141.419 223.538 142.34 227.223C143.262 230.908 138.656 227.223 142.34 230.908C146.025 234.592 147.868 235.514 146.025 237.356C144.183 239.198 141.419 235.514 144.183 239.198C146.946 242.883 146.946 248.41 146.946 248.41L124.838 253.016L118.389 201.429L124.838 164.582Z" fill="#28C6D0"/>
<path d="M50.1007 163.117L54.6262 160.854C55.0838 160.625 55.5821 160.489 56.0925 160.454C56.6029 160.419 57.1152 160.485 57.5998 160.649C58.0845 160.813 58.5318 161.071 58.9161 161.409C59.3003 161.747 59.6139 162.158 59.8386 162.617L80.6203 205.114L103.65 219.853L120.232 212.484C120.232 212.484 132.207 194.06 128.523 184.848C126.024 178.602 123.098 168.992 121.472 163.451C121.376 163.125 121.384 162.778 121.493 162.456C121.602 162.134 121.808 161.854 122.082 161.653C122.356 161.452 122.685 161.34 123.025 161.333C123.365 161.326 123.698 161.424 123.981 161.613L127.121 163.706C128.126 164.376 128.826 165.415 129.071 166.598L135.892 199.587L126.68 218.932V237.356L133.128 336.845C133.128 336.845 109.177 333.16 85.2263 328.554C61.2752 323.948 30.8757 320.264 30.8757 320.264C30.8757 320.264 46.5361 239.198 59.4328 225.38C59.4328 225.38 59.4328 215.247 61.2752 214.326C63.1176 213.405 64.96 206.957 64.96 206.957L48.2738 168.11C47.8836 167.202 47.8555 166.179 48.1951 165.251C48.5348 164.322 49.2165 163.559 50.1007 163.117V163.117Z" fill="#252344"/>
<path d="M120 89.602L98.895 78.547L69.749 83.07L63.719 109.703L78.73 109.125L82.923 99.341V108.964L89.85 108.698L93.87 93.12L96.382 109.703L121.005 109.2L120 89.602Z" fill="#252344"/>
<path d="M70.0265 116.91C71.5528 116.91 72.7901 114.744 72.7901 112.073C72.7901 109.402 71.5528 107.237 70.0265 107.237C68.5002 107.237 67.2629 109.402 67.2629 112.073C67.2629 114.744 68.5002 116.91 70.0265 116.91Z" fill="#FFB8B8"/>
<path d="M810.385 0H188.385V319.006H810.385V0Z" fill="#3F3D56"/>
<path d="M455.029 175.737H326.069C325.877 175.737 325.687 175.699 325.51 175.625C325.333 175.552 325.172 175.444 325.036 175.309C324.9 175.173 324.793 175.012 324.719 174.835C324.646 174.658 324.608 174.468 324.608 174.276V122.693C324.608 122.501 324.646 122.311 324.719 122.134C324.793 121.956 324.9 121.795 325.036 121.66C325.172 121.524 325.333 121.417 325.51 121.343C325.687 121.27 325.877 121.232 326.069 121.232H455.029C455.221 121.232 455.411 121.27 455.588 121.343C455.765 121.416 455.926 121.524 456.062 121.66C456.197 121.795 456.305 121.956 456.378 122.134C456.452 122.311 456.489 122.501 456.489 122.693V174.276C456.489 174.468 456.452 174.658 456.378 174.835C456.305 175.012 456.197 175.173 456.062 175.309C455.926 175.445 455.765 175.552 455.588 175.626C455.411 175.699 455.221 175.737 455.029 175.737V175.737ZM327.529 172.816H453.568V124.153H327.529V172.816Z" fill="white"/>
<path d="M380.877 209.589H326.069C325.877 209.589 325.687 209.552 325.51 209.478C325.333 209.405 325.172 209.297 325.036 209.162C324.9 209.026 324.793 208.865 324.719 208.688C324.646 208.511 324.608 208.321 324.608 208.129V186.205C324.608 186.013 324.646 185.823 324.719 185.646C324.793 185.469 324.9 185.308 325.036 185.172C325.172 185.037 325.333 184.929 325.51 184.856C325.687 184.782 325.877 184.744 326.069 184.745H380.877C381.069 184.744 381.259 184.782 381.436 184.855C381.613 184.929 381.774 185.036 381.91 185.172C382.045 185.308 382.153 185.469 382.226 185.646C382.3 185.823 382.337 186.013 382.337 186.205V208.129C382.337 208.321 382.3 208.511 382.226 208.688C382.153 208.865 382.045 209.026 381.91 209.162C381.774 209.297 381.613 209.405 381.436 209.478C381.259 209.552 381.069 209.589 380.877 209.589V209.589ZM327.529 206.668H379.416V187.665H327.529V206.668Z" fill="white"/>
<path d="M455.029 209.589H400.221C400.029 209.589 399.839 209.552 399.662 209.478C399.484 209.405 399.323 209.297 399.188 209.162C399.052 209.026 398.945 208.865 398.871 208.688C398.798 208.511 398.76 208.321 398.76 208.129V186.205C398.76 186.013 398.798 185.823 398.871 185.646C398.945 185.469 399.052 185.308 399.188 185.172C399.323 185.036 399.484 184.929 399.662 184.855C399.839 184.782 400.029 184.744 400.221 184.745H455.029C455.221 184.744 455.411 184.782 455.588 184.855C455.765 184.929 455.926 185.036 456.062 185.172C456.197 185.308 456.305 185.469 456.378 185.646C456.452 185.823 456.489 186.013 456.489 186.205V208.129C456.489 208.321 456.452 208.511 456.378 208.688C456.305 208.865 456.197 209.026 456.062 209.162C455.926 209.297 455.765 209.405 455.588 209.478C455.411 209.552 455.221 209.589 455.029 209.589V209.589ZM401.681 206.668H453.568V187.665H401.681V206.668Z" fill="white"/>
<path d="M453.417 174.125C453.235 174.125 453.054 174.09 452.884 174.024L325.535 124.052C325.357 123.982 325.194 123.877 325.056 123.744C324.918 123.611 324.807 123.452 324.73 123.277C324.654 123.101 324.612 122.912 324.609 122.72C324.605 122.528 324.64 122.338 324.71 122.159C324.78 121.981 324.884 121.818 325.017 121.68C325.15 121.542 325.309 121.431 325.485 121.354C325.661 121.278 325.85 121.236 326.041 121.233C326.233 121.229 326.424 121.263 326.602 121.333L453.951 171.305C454.267 171.43 454.531 171.661 454.695 171.958C454.86 172.256 454.915 172.602 454.852 172.936C454.789 173.27 454.611 173.572 454.349 173.789C454.087 174.006 453.757 174.125 453.417 174.125V174.125Z" fill="white"/>
<path d="M326.069 175.737C325.73 175.737 325.401 175.619 325.139 175.403C324.877 175.186 324.699 174.886 324.634 174.553C324.57 174.219 324.624 173.874 324.787 173.576C324.949 173.278 325.211 173.046 325.526 172.92L454.487 121.336C454.846 121.194 455.248 121.199 455.603 121.352C455.958 121.505 456.239 121.793 456.382 122.152C456.526 122.511 456.521 122.913 456.369 123.268C456.217 123.624 455.93 123.905 455.571 124.049L326.611 175.632C326.439 175.701 326.255 175.737 326.069 175.737V175.737Z" fill="white"/>
<path d="M380.071 208.783C379.888 208.783 379.707 208.749 379.536 208.682L326.339 187.725C325.979 187.583 325.691 187.303 325.537 186.948C325.383 186.593 325.376 186.192 325.518 185.832C325.66 185.472 325.939 185.182 326.293 185.028C326.648 184.873 327.05 184.866 327.41 185.007L380.606 205.964C380.922 206.088 381.186 206.319 381.35 206.617C381.514 206.915 381.57 207.261 381.506 207.595C381.443 207.929 381.265 208.231 381.003 208.448C380.741 208.665 380.411 208.783 380.071 208.783V208.783Z" fill="white"/>
<path d="M326.875 208.783C326.531 208.784 326.199 208.663 325.936 208.442C325.673 208.221 325.496 207.915 325.436 207.577C325.377 207.239 325.438 206.89 325.61 206.593C325.782 206.296 326.053 206.068 326.375 205.951L379.572 186.607C379.752 186.541 379.944 186.51 380.136 186.518C380.328 186.526 380.517 186.572 380.691 186.653C380.866 186.733 381.022 186.848 381.153 186.99C381.283 187.131 381.383 187.297 381.449 187.478C381.515 187.658 381.544 187.85 381.536 188.042C381.527 188.234 381.48 188.423 381.399 188.597C381.317 188.771 381.202 188.927 381.06 189.057C380.918 189.186 380.751 189.286 380.57 189.351L327.374 208.695C327.214 208.753 327.045 208.783 326.875 208.783V208.783Z" fill="white"/>
<path d="M454.223 208.783C454.048 208.783 453.874 208.752 453.71 208.691L402.126 189.347C401.763 189.211 401.47 188.936 401.309 188.583C401.149 188.23 401.136 187.828 401.272 187.466C401.408 187.103 401.683 186.809 402.035 186.649C402.388 186.489 402.79 186.475 403.153 186.611L454.736 205.955C455.057 206.075 455.325 206.304 455.494 206.602C455.663 206.9 455.722 207.247 455.66 207.584C455.599 207.92 455.422 208.225 455.159 208.444C454.897 208.663 454.565 208.784 454.223 208.783V208.783Z" fill="white"/>
<path d="M402.639 207.172C402.294 207.172 401.96 207.049 401.696 206.826C401.433 206.603 401.257 206.293 401.2 205.952C401.143 205.612 401.208 205.262 401.385 204.965C401.562 204.668 401.838 204.443 402.165 204.331L453.748 186.599C453.93 186.535 454.122 186.508 454.314 186.52C454.506 186.531 454.694 186.58 454.867 186.664C455.039 186.748 455.194 186.865 455.322 187.009C455.449 187.153 455.547 187.32 455.61 187.502C455.672 187.684 455.698 187.876 455.686 188.068C455.674 188.26 455.624 188.448 455.54 188.62C455.455 188.793 455.337 188.947 455.193 189.074C455.048 189.201 454.88 189.298 454.698 189.36L403.114 207.092C402.962 207.145 402.801 207.172 402.639 207.172Z" fill="white"/>
<path d="M246.474 93.4522C242.142 93.4522 237.906 92.1674 234.304 89.7602C230.701 87.3531 227.893 83.9318 226.235 79.9288C224.577 75.9259 224.143 71.5212 224.989 67.2717C225.834 63.0222 227.92 59.1188 230.984 56.0551C234.048 52.9914 237.951 50.905 242.201 50.0597C246.45 49.2144 250.855 49.6483 254.858 51.3063C258.861 52.9644 262.282 55.7722 264.689 59.3748C267.096 62.9773 268.381 67.2128 268.381 71.5455C268.375 77.3535 266.065 82.9218 261.958 87.0287C257.851 91.1356 252.282 93.4457 246.474 93.4522V93.4522ZM246.474 52.5597C242.719 52.5597 239.049 53.6732 235.926 55.7594C232.804 57.8456 230.371 60.8107 228.934 64.2799C227.497 67.7491 227.121 71.5666 227.853 75.2494C228.586 78.9323 230.394 82.3153 233.049 84.9705C235.705 87.6257 239.088 89.4339 242.77 90.1665C246.453 90.8991 250.271 90.5231 253.74 89.0861C257.209 87.6491 260.174 85.2157 262.261 82.0935C264.347 78.9713 265.46 75.3005 265.46 71.5455C265.455 66.5119 263.452 61.6861 259.893 58.1268C256.334 54.5675 251.508 52.5654 246.474 52.5597Z" fill="white"/>
<path d="M391.059 93.4522C386.726 93.4522 382.49 92.1674 378.888 89.7602C375.285 87.3531 372.478 83.9318 370.819 79.9288C369.161 75.9259 368.728 71.5212 369.573 67.2717C370.418 63.0222 372.505 59.1188 375.568 56.0551C378.632 52.9914 382.535 50.905 386.785 50.0597C391.034 49.2144 395.439 49.6483 399.442 51.3063C403.445 52.9644 406.866 55.7722 409.273 59.3748C411.681 62.9773 412.965 67.2128 412.965 71.5455C412.959 77.3536 410.649 82.9219 406.542 87.0289C402.435 91.1358 396.867 93.4459 391.059 93.4522V93.4522ZM391.059 52.5597C387.304 52.5597 383.633 53.6732 380.511 55.7593C377.388 57.8455 374.955 60.8107 373.518 64.2799C372.081 67.7491 371.705 71.5665 372.438 75.2494C373.17 78.9323 374.978 82.3153 377.634 84.9705C380.289 87.6257 383.672 89.4339 387.355 90.1665C391.038 90.8991 394.855 90.5231 398.324 89.0861C401.793 87.6491 404.759 85.2157 406.845 82.0935C408.931 78.9712 410.044 75.3005 410.044 71.5455C410.039 66.5119 408.036 61.6862 404.477 58.1269C400.918 54.5677 396.092 52.5655 391.059 52.5597V52.5597Z" fill="white"/>
<path d="M570.694 93.4522C566.361 93.4522 562.125 92.1674 558.523 89.7602C554.92 87.3531 552.113 83.9318 550.454 79.9288C548.796 75.9259 548.363 71.5212 549.208 67.2717C550.053 63.0222 552.14 59.1188 555.203 56.0551C558.267 52.9914 562.17 50.905 566.42 50.0597C570.669 49.2144 575.074 49.6483 579.077 51.3063C583.08 52.9644 586.501 55.7722 588.908 59.3748C591.316 62.9773 592.6 67.2128 592.6 71.5455C592.594 77.3536 590.284 82.9219 586.177 87.0289C582.07 91.1358 576.502 93.4459 570.694 93.4522V93.4522ZM570.694 52.5597C566.939 52.5597 563.268 53.6732 560.146 55.7593C557.023 57.8455 554.59 60.8107 553.153 64.2799C551.716 67.7491 551.34 71.5665 552.073 75.2494C552.805 78.9323 554.613 82.3153 557.269 84.9705C559.924 87.6257 563.307 89.4339 566.99 90.1665C570.672 90.8991 574.49 90.5231 577.959 89.0861C581.428 87.6491 584.393 85.2157 586.48 82.0935C588.566 78.9712 589.679 75.3005 589.679 71.5455C589.674 66.5119 587.671 61.6862 584.112 58.1269C580.553 54.5677 575.727 52.5655 570.694 52.5597V52.5597Z" fill="white"/>
<path d="M758.896 93.4522C754.563 93.4522 750.328 92.1674 746.725 89.7602C743.123 87.3531 740.315 83.9318 738.657 79.9288C736.999 75.9259 736.565 71.5212 737.41 67.2717C738.255 63.0222 740.342 59.1188 743.405 56.0551C746.469 52.9914 750.373 50.905 754.622 50.0597C758.872 49.2144 763.276 49.6483 767.279 51.3063C771.282 52.9644 774.703 55.7722 777.111 59.3748C779.518 62.9773 780.803 67.2128 780.803 71.5455C780.796 77.3536 778.486 82.9219 774.379 87.0289C770.272 91.1358 764.704 93.4459 758.896 93.4522V93.4522ZM758.896 52.5597C755.141 52.5597 751.47 53.6732 748.348 55.7594C745.226 57.8456 742.792 60.8107 741.355 64.2799C739.918 67.7491 739.542 71.5666 740.275 75.2494C741.007 78.9323 742.816 82.3153 745.471 84.9705C748.126 87.6257 751.509 89.4339 755.192 90.1665C758.875 90.8991 762.692 90.5231 766.161 89.0861C769.631 87.6491 772.596 85.2157 774.682 82.0935C776.768 78.9713 777.882 75.3005 777.882 71.5455C777.876 66.5119 775.874 61.6862 772.314 58.1269C768.755 54.5676 763.929 52.5655 758.896 52.5597V52.5597Z" fill="white"/>
<path d="M387.184 78.3072V77.2019L388.594 75.8313C391.991 72.5995 393.526 70.8795 393.546 68.8756C393.582 68.522 393.539 68.1648 393.418 67.8303C393.298 67.4958 393.104 67.1927 392.851 66.9433C392.597 66.6939 392.291 66.5047 391.955 66.3896C391.618 66.2746 391.26 66.2366 390.907 66.2785C389.865 66.3169 388.867 66.7138 388.084 67.4024L387.51 66.1345C388.567 65.255 389.9 64.7767 391.275 64.7838C391.804 64.7368 392.337 64.8029 392.839 64.9778C393.34 65.1527 393.799 65.4323 394.184 65.798C394.569 66.1637 394.871 66.6072 395.072 67.099C395.272 67.5908 395.366 68.1196 395.346 68.6503C395.346 71.1048 393.566 73.0901 390.763 75.7899L389.699 76.7726V76.8125H395.674V78.3072H387.184Z" fill="white"/>
<path d="M245.989 66.5737H245.949L243.637 67.8217L243.29 66.4511L246.194 64.8965H247.729V78.1945H245.989V66.5737Z" fill="white"/>
<path d="M760.205 78.1938V74.574H754.027V73.3874L759.96 64.8972H761.904V73.1621H763.765V74.5741H761.904V78.1938H760.205ZM760.205 73.1621V68.7237C760.205 68.0277 760.226 67.3317 760.268 66.6357H760.205C759.797 67.4144 759.469 67.9864 759.101 68.6011L755.848 73.1207V73.1621L760.205 73.1621Z" fill="white"/>
<path d="M568.444 76.1279C569.338 76.6563 570.352 76.9452 571.39 76.9666C573.703 76.9666 574.419 75.4933 574.398 74.3894C574.378 72.5267 572.699 71.7295 570.962 71.7295H569.958V70.3788H570.962C572.271 70.3788 573.928 69.7042 573.928 68.1283C573.928 67.0643 573.252 66.123 571.595 66.123C570.642 66.1498 569.717 66.4564 568.937 67.0044L568.466 65.6952C569.5 65.0212 570.709 64.6652 571.943 64.6712C574.562 64.6712 575.748 66.2257 575.748 67.843C575.734 68.5606 575.487 69.2542 575.044 69.8188C574.601 70.3834 573.986 70.7883 573.292 70.9722V71.0135C574.114 71.1325 574.866 71.5429 575.41 72.17C575.955 72.797 576.256 73.5988 576.259 74.4293C576.259 76.5573 574.601 78.4199 571.411 78.4199C570.199 78.4356 569.004 78.1242 567.954 77.5185L568.444 76.1279Z" fill="white"/>
<path d="M639.045 208.129H510.085C509.893 208.129 509.703 208.091 509.526 208.018C509.349 207.944 509.188 207.837 509.052 207.701C508.917 207.566 508.809 207.405 508.736 207.227C508.662 207.05 508.624 206.86 508.625 206.668V124.153C508.624 123.961 508.662 123.771 508.736 123.594C508.809 123.417 508.917 123.256 509.052 123.12C509.188 122.984 509.349 122.877 509.526 122.803C509.703 122.73 509.893 122.692 510.085 122.693H639.045C639.237 122.692 639.427 122.73 639.604 122.803C639.781 122.877 639.942 122.984 640.078 123.12C640.214 123.256 640.321 123.417 640.395 123.594C640.468 123.771 640.506 123.961 640.506 124.153V206.668C640.506 206.86 640.468 207.05 640.395 207.227C640.321 207.405 640.214 207.566 640.078 207.701C639.942 207.837 639.781 207.944 639.604 208.018C639.427 208.091 639.237 208.129 639.045 208.129V208.129ZM511.546 205.208H637.585V125.613H511.546V205.208Z" fill="white"/>
<path d="M615.967 140.948H537.103C536.716 140.948 536.345 140.794 536.071 140.52C535.797 140.246 535.643 139.875 535.643 139.488C535.643 139.1 535.797 138.729 536.071 138.455C536.345 138.181 536.716 138.027 537.103 138.027H615.967C616.355 138.027 616.726 138.181 617 138.455C617.274 138.729 617.428 139.1 617.428 139.488C617.428 139.875 617.274 140.246 617 140.52C616.726 140.794 616.355 140.948 615.967 140.948V140.948Z" fill="white"/>
<path d="M615.967 154.092H537.103C536.911 154.093 536.721 154.055 536.543 153.982C536.366 153.909 536.204 153.801 536.068 153.666C535.932 153.53 535.824 153.369 535.751 153.191C535.677 153.014 535.639 152.824 535.639 152.632C535.639 152.44 535.677 152.249 535.751 152.072C535.824 151.894 535.932 151.733 536.068 151.598C536.204 151.462 536.366 151.354 536.543 151.281C536.721 151.208 536.911 151.171 537.103 151.171H615.967C616.355 151.171 616.726 151.325 617 151.599C617.274 151.873 617.428 152.244 617.428 152.632C617.428 153.019 617.274 153.391 617 153.664C616.726 153.938 616.355 154.092 615.967 154.092V154.092Z" fill="white"/>
<path d="M615.967 167.236H537.103C536.716 167.236 536.345 167.082 536.071 166.808C535.797 166.535 535.643 166.163 535.643 165.776C535.643 165.388 535.797 165.017 536.071 164.743C536.345 164.469 536.716 164.315 537.103 164.315H615.967C616.355 164.315 616.726 164.469 617 164.743C617.274 165.017 617.428 165.388 617.428 165.776C617.428 166.163 617.274 166.535 617 166.808C616.726 167.082 616.355 167.236 615.967 167.236V167.236Z" fill="white"/>
<path d="M615.967 180.38H537.103C536.911 180.381 536.721 180.343 536.543 180.27C536.366 180.197 536.204 180.089 536.068 179.954C535.932 179.818 535.824 179.657 535.751 179.48C535.677 179.302 535.639 179.112 535.639 178.92C535.639 178.728 535.677 178.537 535.751 178.36C535.824 178.183 535.932 178.021 536.068 177.886C536.204 177.75 536.366 177.643 536.543 177.569C536.721 177.496 536.911 177.459 537.103 177.459H615.967C616.355 177.459 616.726 177.613 617 177.887C617.274 178.161 617.428 178.532 617.428 178.92C617.428 179.307 617.274 179.679 617 179.952C616.726 180.226 616.355 180.38 615.967 180.38V180.38Z" fill="white"/>
<path d="M615.967 193.524H537.103C536.716 193.524 536.345 193.37 536.071 193.096C535.797 192.823 535.643 192.451 535.643 192.064C535.643 191.676 535.797 191.305 536.071 191.031C536.345 190.757 536.716 190.603 537.103 190.603H615.967C616.16 190.603 616.35 190.64 616.528 190.713C616.705 190.787 616.867 190.894 617.003 191.03C617.139 191.165 617.247 191.327 617.32 191.504C617.394 191.681 617.432 191.872 617.432 192.064C617.432 192.256 617.394 192.446 617.32 192.624C617.247 192.801 617.139 192.962 617.003 193.098C616.867 193.233 616.705 193.341 616.528 193.414C616.35 193.487 616.16 193.525 615.967 193.524Z" fill="white"/>
<path d="M216.311 126.749C216.7 126.735 217.068 126.571 217.338 126.291C217.609 126.011 217.76 125.638 217.76 125.249C217.76 124.86 217.609 124.486 217.338 124.206C217.068 123.926 216.7 123.762 216.311 123.749C215.922 123.762 215.554 123.926 215.283 124.206C215.013 124.486 214.862 124.86 214.862 125.249C214.862 125.638 215.013 126.011 215.283 126.291C215.554 126.571 215.922 126.735 216.311 126.749V126.749Z" fill="white"/>
<path d="M216.311 142.813C216.7 142.8 217.068 142.636 217.338 142.356C217.609 142.076 217.76 141.703 217.76 141.313C217.76 140.924 217.609 140.551 217.338 140.271C217.068 139.991 216.7 139.827 216.311 139.813C215.922 139.827 215.554 139.991 215.283 140.271C215.013 140.551 214.862 140.924 214.862 141.313C214.862 141.703 215.013 142.076 215.283 142.356C215.554 142.636 215.922 142.8 216.311 142.813V142.813Z" fill="white"/>
<path d="M216.311 158.878C216.7 158.865 217.068 158.701 217.338 158.421C217.609 158.141 217.76 157.767 217.76 157.378C217.76 156.989 217.609 156.615 217.338 156.336C217.068 156.056 216.7 155.892 216.311 155.878C215.922 155.892 215.554 156.056 215.283 156.336C215.013 156.615 214.862 156.989 214.862 157.378C214.862 157.767 215.013 158.141 215.283 158.421C215.554 158.701 215.922 158.865 216.311 158.878V158.878Z" fill="white"/>
<path d="M216.311 174.943C216.7 174.93 217.068 174.766 217.338 174.486C217.609 174.206 217.76 173.832 217.76 173.443C217.76 173.054 217.609 172.68 217.338 172.401C217.068 172.121 216.7 171.957 216.311 171.943C215.922 171.957 215.554 172.121 215.283 172.401C215.013 172.68 214.862 173.054 214.862 173.443C214.862 173.832 215.013 174.206 215.283 174.486C215.554 174.766 215.922 174.93 216.311 174.943V174.943Z" fill="white"/>
<path d="M216.311 191.008C216.7 190.995 217.068 190.831 217.338 190.551C217.609 190.271 217.76 189.897 217.76 189.508C217.76 189.119 217.609 188.745 217.338 188.465C217.068 188.186 216.7 188.022 216.311 188.008C215.922 188.022 215.554 188.186 215.283 188.465C215.013 188.745 214.862 189.119 214.862 189.508C214.862 189.897 215.013 190.271 215.283 190.551C215.554 190.831 215.922 190.995 216.311 191.008V191.008Z" fill="white"/>
<path d="M216.311 207.073C216.7 207.06 217.068 206.896 217.338 206.616C217.609 206.336 217.76 205.962 217.76 205.573C217.76 205.184 217.609 204.81 217.338 204.53C217.068 204.251 216.7 204.087 216.311 204.073C215.922 204.087 215.554 204.251 215.283 204.53C215.013 204.81 214.862 205.184 214.862 205.573C214.862 205.962 215.013 206.336 215.283 206.616C215.554 206.896 215.922 207.06 216.311 207.073V207.073Z" fill="white"/>
<path d="M277.144 126.709H230.409C230.022 126.709 229.651 126.555 229.377 126.281C229.103 126.007 228.949 125.636 228.949 125.248C228.949 124.861 229.103 124.489 229.377 124.216C229.651 123.942 230.022 123.788 230.409 123.788H277.144C277.531 123.788 277.903 123.942 278.176 124.216C278.45 124.489 278.604 124.861 278.604 125.248C278.604 125.636 278.45 126.007 278.176 126.281C277.903 126.555 277.531 126.709 277.144 126.709H277.144Z" fill="white"/>
<path d="M277.144 142.774H230.409C230.217 142.774 230.027 142.737 229.849 142.664C229.672 142.59 229.51 142.483 229.374 142.347C229.238 142.212 229.13 142.05 229.057 141.873C228.983 141.696 228.945 141.505 228.945 141.313C228.945 141.121 228.983 140.931 229.057 140.753C229.13 140.576 229.238 140.415 229.374 140.279C229.51 140.144 229.672 140.036 229.849 139.963C230.027 139.89 230.217 139.852 230.409 139.853H277.144C277.336 139.852 277.526 139.89 277.704 139.963C277.881 140.036 278.043 140.144 278.179 140.279C278.315 140.415 278.423 140.576 278.496 140.753C278.57 140.931 278.608 141.121 278.608 141.313C278.608 141.505 278.57 141.696 278.496 141.873C278.423 142.05 278.315 142.212 278.179 142.347C278.043 142.483 277.881 142.59 277.704 142.664C277.526 142.737 277.336 142.774 277.144 142.774H277.144Z" fill="white"/>
<path d="M277.144 158.839H230.409C230.022 158.839 229.651 158.685 229.377 158.411C229.103 158.137 228.949 157.765 228.949 157.378C228.949 156.991 229.103 156.619 229.377 156.345C229.651 156.072 230.022 155.918 230.409 155.918H277.144C277.336 155.917 277.526 155.955 277.704 156.028C277.881 156.101 278.043 156.208 278.179 156.344C278.315 156.48 278.423 156.641 278.496 156.818C278.57 156.996 278.608 157.186 278.608 157.378C278.608 157.57 278.57 157.76 278.496 157.938C278.423 158.115 278.315 158.277 278.179 158.412C278.043 158.548 277.881 158.655 277.704 158.729C277.526 158.802 277.336 158.839 277.144 158.839H277.144Z" fill="white"/>
<path d="M277.144 174.904H230.409C230.022 174.904 229.651 174.75 229.377 174.476C229.103 174.202 228.949 173.83 228.949 173.443C228.949 173.056 229.103 172.684 229.377 172.41C229.651 172.136 230.022 171.983 230.409 171.983H277.144C277.336 171.982 277.526 172.02 277.704 172.093C277.881 172.166 278.043 172.273 278.179 172.409C278.315 172.545 278.423 172.706 278.496 172.883C278.57 173.061 278.608 173.251 278.608 173.443C278.608 173.635 278.57 173.825 278.496 174.003C278.423 174.18 278.315 174.341 278.179 174.477C278.043 174.613 277.881 174.72 277.704 174.793C277.526 174.867 277.336 174.904 277.144 174.904H277.144Z" fill="white"/>
<path d="M277.144 190.968H230.409C230.022 190.968 229.651 190.815 229.377 190.541C229.103 190.267 228.949 189.895 228.949 189.508C228.949 189.121 229.103 188.749 229.377 188.475C229.651 188.201 230.022 188.048 230.409 188.048H277.144C277.336 188.047 277.526 188.084 277.704 188.158C277.881 188.231 278.043 188.338 278.179 188.474C278.315 188.61 278.423 188.771 278.496 188.948C278.57 189.126 278.608 189.316 278.608 189.508C278.608 189.7 278.57 189.89 278.496 190.068C278.423 190.245 278.315 190.406 278.179 190.542C278.043 190.678 277.881 190.785 277.704 190.858C277.526 190.932 277.336 190.969 277.144 190.968H277.144Z" fill="white"/>
<path d="M277.144 207.033H230.409C230.217 207.034 230.027 206.996 229.849 206.923C229.672 206.85 229.51 206.743 229.374 206.607C229.238 206.471 229.13 206.31 229.057 206.133C228.983 205.955 228.945 205.765 228.945 205.573C228.945 205.381 228.983 205.191 229.057 205.013C229.13 204.836 229.238 204.675 229.374 204.539C229.51 204.403 229.672 204.296 229.849 204.223C230.027 204.149 230.217 204.112 230.409 204.112H277.144C277.336 204.112 277.526 204.149 277.704 204.223C277.881 204.296 278.043 204.403 278.179 204.539C278.315 204.675 278.423 204.836 278.496 205.013C278.57 205.191 278.608 205.381 278.608 205.573C278.608 205.765 278.57 205.955 278.496 206.133C278.423 206.31 278.315 206.471 278.179 206.607C278.043 206.743 277.881 206.85 277.704 206.923C277.526 206.996 277.336 207.034 277.144 207.033H277.144Z" fill="white"/>
<path d="M774.616 213.702H743.178C741.098 213.7 739.104 212.873 737.634 211.403C736.163 209.933 735.336 207.939 735.333 205.86V124.96C735.336 122.881 736.163 120.887 737.634 119.417C739.104 117.947 741.098 117.121 743.178 117.119H746.991C747.23 117.119 747.466 117.177 747.677 117.29C747.888 117.402 748.068 117.564 748.202 117.762C748.336 117.96 748.419 118.188 748.444 118.426C748.469 118.664 748.436 118.904 748.346 119.126C748.249 119.364 748.211 119.623 748.237 119.88C748.263 120.137 748.352 120.383 748.495 120.597C748.639 120.812 748.833 120.988 749.06 121.109C749.288 121.231 749.542 121.295 749.799 121.296H767.723C767.981 121.296 768.234 121.232 768.461 121.111C768.689 120.989 768.883 120.814 769.027 120.6C769.171 120.386 769.26 120.14 769.286 119.884C769.313 119.628 769.276 119.369 769.179 119.13C769.089 118.908 769.054 118.668 769.078 118.429C769.103 118.191 769.186 117.963 769.319 117.764C769.453 117.565 769.633 117.403 769.844 117.29C770.056 117.178 770.292 117.119 770.531 117.119H774.616C776.695 117.121 778.688 117.948 780.159 119.418C781.629 120.888 782.456 122.881 782.458 124.96V205.86C782.456 207.939 781.629 209.932 780.159 211.403C778.688 212.873 776.695 213.7 774.616 213.702ZM743.178 120.04C741.873 120.041 740.622 120.56 739.699 121.482C738.776 122.405 738.256 123.655 738.254 124.96V205.86C738.256 207.165 738.775 208.416 739.698 209.338C740.621 210.261 741.872 210.78 743.178 210.781H774.616C775.921 210.78 777.172 210.261 778.094 209.338C779.017 208.416 779.536 207.164 779.538 205.86V124.96C779.536 123.656 779.017 122.405 778.094 121.482C777.171 120.56 775.92 120.041 774.616 120.04H772.204C772.123 121.173 771.615 122.234 770.784 123.009C769.953 123.784 768.859 124.216 767.723 124.217H749.799C748.663 124.215 747.57 123.784 746.739 123.009C745.908 122.234 745.401 121.173 745.32 120.04H743.178Z" fill="white"/>
<path d="M712.357 167.236H671.464C671.077 167.236 670.706 167.082 670.432 166.808C670.158 166.535 670.004 166.163 670.004 165.776C670.004 165.388 670.158 165.017 670.432 164.743C670.706 164.469 671.077 164.315 671.464 164.315H708.831L700.371 155.855C700.097 155.581 699.943 155.21 699.943 154.822C699.943 154.435 700.097 154.064 700.371 153.79C700.645 153.516 701.016 153.362 701.404 153.362C701.791 153.362 702.162 153.516 702.436 153.79L713.39 164.743C713.594 164.947 713.733 165.208 713.789 165.491C713.846 165.774 713.817 166.068 713.706 166.335C713.596 166.601 713.408 166.83 713.168 166.99C712.928 167.151 712.646 167.236 712.357 167.236V167.236Z" fill="white"/>
<path d="M702.134 177.459C701.845 177.459 701.563 177.374 701.323 177.213C701.083 177.053 700.895 176.825 700.785 176.558C700.674 176.291 700.645 175.997 700.702 175.714C700.758 175.431 700.897 175.171 701.101 174.966L711.324 164.743C711.598 164.469 711.97 164.315 712.357 164.315C712.744 164.315 713.116 164.469 713.39 164.743C713.663 165.017 713.817 165.388 713.817 165.776C713.817 166.163 713.663 166.534 713.39 166.808L703.166 177.031C703.031 177.167 702.87 177.275 702.693 177.348C702.516 177.422 702.326 177.46 702.134 177.459Z" fill="white"/>
<path d="M784.353 290.158H736.602C733.343 271.32 733.343 252.063 736.602 233.225H784.353C778.973 251.821 778.973 271.562 784.353 290.158V290.158Z" fill="#FF6584"/>
<path d="M519.228 280.37H566.979C570.238 261.532 570.238 242.274 566.979 223.436H519.228C524.608 242.033 524.608 261.773 519.228 280.37V280.37Z" fill="#28C6D0"/>
<path d="M591.898 296.381H639.648C642.907 277.543 642.907 258.286 639.648 239.448H591.898C597.277 258.044 597.277 277.785 591.898 296.381V296.381Z" fill="#28C6D0"/>
<path d="M559.445 240.024H530.388C529.886 240.024 529.48 239.37 529.48 238.563C529.48 237.756 529.886 237.103 530.388 237.103H559.445C559.946 237.103 560.353 237.756 560.353 238.563C560.353 239.37 559.946 240.024 559.445 240.024Z" fill="white"/>
<path d="M559.445 253.572H530.388C529.886 253.572 529.48 252.919 529.48 252.112C529.48 251.304 529.886 250.651 530.388 250.651H559.445C559.946 250.651 560.353 251.304 560.353 252.112C560.353 252.919 559.946 253.572 559.445 253.572Z" fill="white"/>
<path d="M632.114 262.194H603.057C602.556 262.194 602.149 261.541 602.149 260.733C602.149 259.926 602.556 259.273 603.057 259.273H632.114C632.616 259.273 633.022 259.926 633.022 260.733C633.022 261.541 632.616 262.194 632.114 262.194Z" fill="white"/>
<path d="M632.114 275.742H603.057C602.556 275.742 602.149 275.089 602.149 274.282C602.149 273.475 602.556 272.822 603.057 272.822H632.114C632.616 272.822 633.022 273.475 633.022 274.282C633.022 275.089 632.616 275.742 632.114 275.742Z" fill="white"/>
<path d="M773.758 248.645H744.701C744.199 248.645 743.793 247.992 743.793 247.185C743.793 246.378 744.199 245.724 744.701 245.724H773.758C774.259 245.724 774.666 246.378 774.666 247.185C774.666 247.992 774.259 248.645 773.758 248.645Z" fill="white"/>
<path d="M773.758 262.194H744.701C744.199 262.194 743.793 261.541 743.793 260.733C743.793 259.926 744.199 259.273 744.701 259.273H773.758C774.259 259.273 774.666 259.926 774.666 260.733C774.666 261.541 774.259 262.194 773.758 262.194Z" fill="white"/>
<path d="M559.445 267.121H530.388C529.886 267.121 529.48 266.467 529.48 265.66C529.48 264.853 529.886 264.2 530.388 264.2H559.445C559.946 264.2 560.353 264.853 560.353 265.66C560.353 266.467 559.946 267.121 559.445 267.121Z" fill="white"/>
<path d="M279.05 281.601H326.801C330.059 262.763 330.059 243.506 326.801 224.668H279.05C284.43 243.264 284.43 263.005 279.05 281.601V281.601Z" fill="#28C6D0"/>
<path d="M319.267 241.255H290.21C289.708 241.255 289.302 240.602 289.302 239.795C289.302 238.988 289.708 238.334 290.21 238.334H319.267C319.768 238.334 320.175 238.988 320.175 239.795C320.175 240.602 319.768 241.255 319.267 241.255Z" fill="white"/>
<path d="M319.267 254.804H290.21C289.708 254.804 289.302 254.151 289.302 253.343C289.302 252.536 289.708 251.883 290.21 251.883H319.267C319.768 251.883 320.175 252.536 320.175 253.343C320.175 254.151 319.768 254.804 319.267 254.804Z" fill="white"/>
<path d="M319.267 268.352H290.21C289.708 268.352 289.302 267.699 289.302 266.892C289.302 266.085 289.708 265.431 290.21 265.431H319.267C319.768 265.431 320.175 266.085 320.175 266.892C320.175 267.699 319.768 268.352 319.267 268.352Z" fill="white"/>
<path d="M142.05 371.601H189.801C193.059 352.763 193.059 333.506 189.801 314.668H142.05C147.43 333.264 147.43 353.005 142.05 371.601V371.601Z" fill="#28C6D0"/>
<path d="M182.267 331.255H153.21C152.708 331.255 152.302 330.602 152.302 329.795C152.302 328.988 152.708 328.334 153.21 328.334H182.267C182.768 328.334 183.175 328.988 183.175 329.795C183.175 330.602 182.768 331.255 182.267 331.255Z" fill="white"/>
<path d="M182.267 344.804H153.21C152.708 344.804 152.302 344.151 152.302 343.343C152.302 342.536 152.708 341.883 153.21 341.883H182.267C182.768 341.883 183.175 342.536 183.175 343.343C183.175 344.151 182.768 344.804 182.267 344.804Z" fill="white"/>
<path d="M182.267 358.352H153.21C152.708 358.352 152.302 357.699 152.302 356.892C152.302 356.085 152.708 355.431 153.21 355.431H182.267C182.768 355.431 183.175 356.085 183.175 356.892C183.175 357.699 182.768 358.352 182.267 358.352Z" fill="white"/>
<path d="M802.642 265.686C802.642 265.686 773.304 288.737 787.973 293.976C802.642 299.215 812.072 275.116 812.072 275.116L802.642 265.686Z" fill="#A0616A"/>
<path d="M803.69 257.303L797.403 267.781C797.403 267.781 807.881 267.781 809.977 283.498L818.359 273.02L803.69 257.303Z" fill="#CFCCE0"/>
<path d="M943.047 496.201L944.094 527.634L931.521 534.969L926.282 531.826L927.33 496.201H943.047Z" fill="#A0616A"/>
<path d="M868.653 487.818L870.749 521.348L841.411 533.921L843.506 516.109C843.506 516.109 851.888 502.487 849.793 487.818H868.653Z" fill="#A0616A"/>
<path d="M913.708 235.3C913.708 235.3 930.473 279.307 933.616 306.55C936.76 333.792 941.999 406.09 941.999 406.09L952.477 499.344L923.138 503.535L910.565 409.234L882.274 315.98L875.988 409.234L870.749 494.105L843.506 495.153L841.411 407.138L829.885 295.024L836.172 241.587L913.708 235.3Z" fill="#252344"/>
<path d="M929.425 529.73C929.425 529.73 931.144 512.132 943.906 521.979L946.19 520.3L956.668 543.351C956.668 543.351 969.241 561.164 947.238 563.259C925.234 565.355 927.33 543.351 927.33 543.351L925.234 533.921L926.282 527.746L929.425 529.73Z" fill="#252344"/>
<path d="M868.653 508.774C871.232 510.249 873.37 512.387 874.844 514.966C876.318 517.546 877.074 520.472 877.036 523.443C877.036 533.921 875.988 534.969 875.988 534.969L860.271 539.16C860.271 539.16 849.793 538.112 843.506 544.399C837.219 550.686 805.785 554.877 805.785 546.495C805.785 538.112 831.98 524.491 831.98 524.491C831.98 524.491 839.76 511.354 845.3 512.683C850.841 514.013 852.936 516.109 852.936 517.156C852.936 518.204 849.793 525.539 849.793 525.539C849.793 525.539 867.605 521.348 868.653 508.774Z" fill="#252344"/>
<path d="M866.558 106.421C881.025 106.421 892.752 94.6933 892.752 80.2262C892.752 65.7592 881.025 54.0314 866.558 54.0314C852.091 54.0314 840.363 65.7592 840.363 80.2262C840.363 94.6933 852.091 106.421 866.558 106.421Z" fill="#A0616A"/>
<path d="M885.942 87.0369L897.467 113.232L866.034 158.287C866.034 158.287 863.938 109.041 857.651 100.658C851.365 92.2759 885.942 87.0369 885.942 87.0369Z" fill="#A0616A"/>
<path d="M871.273 141.522L876.512 127.901L880.703 128.949L885.942 124.757L893.276 101.706L903.754 109.041L917.376 246.302L832.504 248.397L844.03 153.048L854.508 125.805L862.071 115.807L867.081 131.044L871.273 141.522Z" fill="#CFCCE0"/>
<path d="M895.372 200.199L898.578 105.417C898.578 105.417 904.802 105.897 906.898 109.041C908.993 112.184 943.57 118.471 943.57 118.471L937.284 215.916C937.284 215.916 963.478 293.452 954.048 297.644C944.618 301.835 927.854 300.787 927.854 300.787L895.372 200.199Z" fill="#107FC0"/>
<path d="M844.554 188.149L855.669 124.27L830.933 140.998L837.219 187.101L831.98 218.535C831.98 218.535 812.072 305.502 818.359 308.645C824.646 311.789 831.98 308.645 831.98 308.645L844.554 220.631V188.149Z" fill="#107FC0"/>
<path d="M838.267 138.903L830.933 140.998L827.789 182.91L822.55 219.583L797.403 264.638C797.403 264.638 809.977 256.256 815.216 280.355L842.91 232.138L838.267 138.903Z" fill="#107FC0"/>
<path d="M919.995 257.303C919.995 257.303 890.657 280.355 905.326 285.594C919.995 290.833 929.425 266.734 929.425 266.734L919.995 257.303Z" fill="#A0616A"/>
<path d="M937.808 268.829L928.377 280.355L915.804 258.351L921.043 248.921L937.808 268.829Z" fill="#CFCCE0"/>
<path d="M935.712 122.138L944.094 117.947C944.094 117.947 950.381 126.329 951.429 133.664C952.477 140.998 957.716 150.428 957.716 155.667C957.716 160.906 972.385 210.153 972.385 210.153L938.855 278.259C938.855 278.259 931.521 253.112 915.804 251.017L941.999 214.344L927.33 188.149L935.712 122.138Z" fill="#107FC0"/>
<path d="M888.487 55.2682L893.426 53.2906C893.426 53.2906 883.098 41.9197 868.728 42.9085L872.77 38.459C872.77 38.459 862.89 34.5039 853.909 44.886C849.188 50.3436 843.725 56.7588 840.32 63.9854H835.03L837.238 68.8468L829.51 73.7083L837.442 72.8351C836.969 75.4972 836.897 78.2151 837.227 80.8987C837.567 83.5831 838.937 86.0304 841.047 87.7239V87.7239C841.047 87.7239 847.173 75.0436 847.173 73.0661V78.0099C847.173 78.0099 852.113 73.5605 852.113 70.5942L854.807 74.0549L856.155 68.6166L872.77 74.0549L870.075 69.6054L880.404 71.0886L876.362 65.6503C876.362 65.6503 888.037 72.0773 888.487 77.5156C888.936 82.9538 892.353 88.1069 892.353 88.1069C892.353 88.1069 901.509 62.6839 888.487 55.2682Z" fill="#252344"/>
<path d="M888.037 79.7023C889.658 79.7023 890.971 78.0604 890.971 76.035C890.971 74.0097 889.658 72.3678 888.037 72.3678C886.417 72.3678 885.104 74.0097 885.104 76.035C885.104 78.0604 886.417 79.7023 888.037 79.7023Z" fill="#A0616A"/>
</g>
<defs>
<clipPath id="clip0">
<rect width="972.385" height="563.4" fill="white"/>
</clipPath>
</defs>
</svg>
