<svg width="1009" height="780" viewBox="0 0 1009 780" fill="none" xmlns="http://www.w3.org/2000/svg">
<g clip-path="url(#clip0)">
<path opacity="0.1" d="M365.75 751.59C566.765 751.59 729.72 731.658 729.72 707.07C729.72 682.482 566.765 662.55 365.75 662.55C164.735 662.55 1.78003 682.482 1.78003 707.07C1.78003 731.658 164.735 751.59 365.75 751.59Z" fill="#28C6D0"/>
<path d="M1000.46 0H28.13C23.905 0 20.48 3.42502 20.48 7.65V531.01C20.48 535.235 23.905 538.66 28.13 538.66H1000.46C1004.68 538.66 1008.11 535.235 1008.11 531.01V7.65C1008.11 3.42502 1004.68 0 1000.46 0Z" fill="#E8EAF2"/>
<path d="M1008.1 7.65001V33.51H20.47V7.65001C20.47 6.64455 20.6682 5.64896 21.0532 4.72017C21.4383 3.79138 22.0027 2.9476 22.7141 2.2371C23.4256 1.5266 24.2701 0.963315 25.1994 0.579455C26.1287 0.195595 27.1245 -0.00130777 28.13 6.55372e-06H1000.45C1001.45 -0.00130973 1002.45 0.195664 1003.38 0.579646C1004.31 0.963628 1005.15 1.52707 1005.86 2.2377C1006.57 2.94833 1007.14 3.79219 1007.52 4.72092C1007.9 5.64966 1008.1 6.64503 1008.1 7.65001V7.65001Z" fill="#65617D"/>
<path opacity="0.8" d="M35.72 23.28C39.3209 23.28 42.24 20.3609 42.24 16.76C42.24 13.1591 39.3209 10.24 35.72 10.24C32.1191 10.24 29.2 13.1591 29.2 16.76C29.2 20.3609 32.1191 23.28 35.72 23.28Z" fill="#FA5959"/>
<path opacity="0.8" d="M53.29 23.28C56.8909 23.28 59.81 20.3609 59.81 16.76C59.81 13.1591 56.8909 10.24 53.29 10.24C49.6891 10.24 46.77 13.1591 46.77 16.76C46.77 20.3609 49.6891 23.28 53.29 23.28Z" fill="#FED253"/>
<path opacity="0.8" d="M70.87 23.28C74.4709 23.28 77.39 20.3609 77.39 16.76C77.39 13.1591 74.4709 10.24 70.87 10.24C67.2691 10.24 64.35 13.1591 64.35 16.76C64.35 20.3609 67.2691 23.28 70.87 23.28Z" fill="#8CCF4D"/>
<path opacity="0.2" d="M537.18 68.32H72C67.775 68.32 64.35 71.745 64.35 75.97V283.78C64.35 288.005 67.775 291.43 72 291.43H537.18C541.405 291.43 544.83 288.005 544.83 283.78V75.97C544.83 71.745 541.405 68.32 537.18 68.32Z" fill="#28C6D0"/>
<path d="M542.94 359.46H66.24C65.1962 359.46 64.35 360.306 64.35 361.35V372.88C64.35 373.924 65.1962 374.77 66.24 374.77H542.94C543.984 374.77 544.83 373.924 544.83 372.88V361.35C544.83 360.306 543.984 359.46 542.94 359.46Z" fill="white"/>
<path d="M542.94 391.78H66.24C65.1962 391.78 64.35 392.626 64.35 393.67V405.2C64.35 406.244 65.1962 407.09 66.24 407.09H542.94C543.984 407.09 544.83 406.244 544.83 405.2V393.67C544.83 392.626 543.984 391.78 542.94 391.78Z" fill="white"/>
<path d="M542.94 424.09H66.24C65.1962 424.09 64.35 424.936 64.35 425.98V437.51C64.35 438.554 65.1962 439.4 66.24 439.4H542.94C543.984 439.4 544.83 438.554 544.83 437.51V425.98C544.83 424.936 543.984 424.09 542.94 424.09Z" fill="white"/>
<path d="M542.94 456.41H66.24C65.1962 456.41 64.35 457.256 64.35 458.3V469.83C64.35 470.874 65.1962 471.72 66.24 471.72H542.94C543.984 471.72 544.83 470.874 544.83 469.83V458.3C544.83 457.256 543.984 456.41 542.94 456.41Z" fill="white"/>
<path d="M542.94 488.72H66.24C65.1962 488.72 64.35 489.566 64.35 490.61V502.14C64.35 503.184 65.1962 504.03 66.24 504.03H542.94C543.984 504.03 544.83 503.184 544.83 502.14V490.61C544.83 489.566 543.984 488.72 542.94 488.72Z" fill="white"/>
<path d="M945.07 68.32H608.31C604.085 68.32 600.66 71.745 600.66 75.97V496.38C600.66 500.605 604.085 504.03 608.31 504.03H945.07C949.295 504.03 952.72 500.605 952.72 496.38V75.97C952.72 71.745 949.295 68.32 945.07 68.32Z" fill="white"/>
<path opacity="0.2" d="M681.83 118.52H622.11C621.066 118.52 620.22 119.366 620.22 120.41V131.94C620.22 132.984 621.066 133.83 622.11 133.83H681.83C682.874 133.83 683.72 132.984 683.72 131.94V120.41C683.72 119.366 682.874 118.52 681.83 118.52Z" fill="#28C6D0"/>
<path d="M934.11 147.43H622.11C621.066 147.43 620.22 148.276 620.22 149.32V160.85C620.22 161.894 621.066 162.74 622.11 162.74H934.11C935.154 162.74 936 161.894 936 160.85V149.32C936 148.276 935.154 147.43 934.11 147.43Z" fill="#E8EAF2"/>
<path d="M934.11 176.35H622.11C621.066 176.35 620.22 177.196 620.22 178.24V189.77C620.22 190.814 621.066 191.66 622.11 191.66H934.11C935.154 191.66 936 190.814 936 189.77V178.24C936 177.196 935.154 176.35 934.11 176.35Z" fill="#E8EAF2"/>
<path opacity="0.2" d="M681.83 234.17H622.11C621.066 234.17 620.22 235.016 620.22 236.06V247.59C620.22 248.634 621.066 249.48 622.11 249.48H681.83C682.874 249.48 683.72 248.634 683.72 247.59V236.06C683.72 235.016 682.874 234.17 681.83 234.17Z" fill="#28C6D0"/>
<path d="M934.11 263.09H622.11C621.066 263.09 620.22 263.936 620.22 264.98V276.51C620.22 277.554 621.066 278.4 622.11 278.4H934.11C935.154 278.4 936 277.554 936 276.51V264.98C936 263.936 935.154 263.09 934.11 263.09Z" fill="#E8EAF2"/>
<path d="M934.11 292H622.11C621.066 292 620.22 292.846 620.22 293.89V305.42C620.22 306.464 621.066 307.31 622.11 307.31H934.11C935.154 307.31 936 306.464 936 305.42V293.89C936 292.846 935.154 292 934.11 292Z" fill="#E8EAF2"/>
<path opacity="0.2" d="M681.83 349.83H622.11C621.066 349.83 620.22 350.676 620.22 351.72V363.25C620.22 364.294 621.066 365.14 622.11 365.14H681.83C682.874 365.14 683.72 364.294 683.72 363.25V351.72C683.72 350.676 682.874 349.83 681.83 349.83Z" fill="#28C6D0"/>
<path d="M934.11 378.74H622.11C621.066 378.74 620.22 379.586 620.22 380.63V392.16C620.22 393.204 621.066 394.05 622.11 394.05H934.11C935.154 394.05 936 393.204 936 392.16V380.63C936 379.586 935.154 378.74 934.11 378.74Z" fill="#E8EAF2"/>
<path d="M934.11 407.65H622.11C621.066 407.65 620.22 408.496 620.22 409.54V421.07C620.22 422.114 621.066 422.96 622.11 422.96H934.11C935.154 422.96 936 422.114 936 421.07V409.54C936 408.496 935.154 407.65 934.11 407.65Z" fill="#E8EAF2"/>
<path d="M929.58 465.48H869.86C868.816 465.48 867.97 466.326 867.97 467.37V478.9C867.97 479.944 868.816 480.79 869.86 480.79H929.58C930.624 480.79 931.47 479.944 931.47 478.9V467.37C931.47 466.326 930.624 465.48 929.58 465.48Z" fill="#28C6D0"/>
<path d="M542.94 307.31H483.22C482.176 307.31 481.33 308.156 481.33 309.2V320.73C481.33 321.774 482.176 322.62 483.22 322.62H542.94C543.984 322.62 544.83 321.774 544.83 320.73V309.2C544.83 308.156 543.984 307.31 542.94 307.31Z" fill="#28C6D0"/>
<path d="M505.55 335.66C506.492 336.95 507.621 338.093 508.9 339.05C509.74 339.74 510.59 340.44 511.48 341.05L512.26 341.57C512.23 341.614 512.203 341.661 512.18 341.71C511.969 342.091 511.889 342.529 511.95 342.96C512.142 343.48 512.491 343.928 512.95 344.24C515.031 346.173 516.434 348.726 516.95 351.52C517.26 353.14 516.17 354.87 516.24 356.52C516.398 358.134 516.828 359.709 517.51 361.18C518.87 364.65 520.32 368.24 523.05 370.77C523.694 376.342 525.841 381.634 529.26 386.08C532.13 389.76 535.96 392.53 539.73 395.26C540.925 396.217 542.227 397.032 543.61 397.69C544.852 398.143 546.135 398.478 547.44 398.69C558.512 400.936 569.757 402.227 581.05 402.55C581.37 409.27 581.507 415.997 581.46 422.73C581.521 423.836 581.365 424.944 581 425.99C580.44 426.974 579.769 427.89 579 428.72C576.41 432.16 576.28 436.81 576.5 441.11C576.753 446.143 577.337 451.154 578.25 456.11C579.42 462.45 578.35 469.46 580.6 475.49C581.49 477.87 582.38 480.26 583.26 482.64C583.559 483.307 583.738 484.021 583.79 484.75C583.79 486.32 582.79 487.65 581.99 489.01C580.88 490.987 580.34 493.234 580.43 495.5C580.42 495.757 580.486 496.011 580.62 496.23C580.91 496.62 581.5 496.59 581.99 496.51C583.979 496.226 585.982 496.042 587.99 495.96C587.623 496.409 587.289 496.883 586.99 497.38C586.509 498.221 586.085 499.093 585.72 499.99C585.002 501.486 584.436 503.051 584.03 504.66C583.957 504.893 583.9 505.13 583.86 505.37C583.75 505.85 583.65 506.37 583.57 506.82C583.142 509.659 582.968 512.53 583.05 515.4C582.77 520.75 582.5 526.33 581.98 527.97C581.25 530.28 582.16 533.97 583.06 537.5C583.107 539.934 583.546 542.345 584.36 544.64C584.431 547.17 584.722 549.69 585.23 552.17C588.317 569.577 591.61 586.953 595.11 604.3C595.42 605.8 595.72 607.3 596.11 608.78C597.41 613.602 599.687 618.105 602.8 622.01C605.536 625.472 607.884 629.225 609.8 633.2C609.6 634.14 609.39 635.09 609.16 636.03C607.16 644.33 604.6 652.51 603.69 661.03C603.33 664.41 603.23 667.89 601.89 671.03C601.21 672.62 600.21 674.13 600.07 675.86C599.99 676.955 600.248 678.047 600.81 678.99L600.15 679.53L599.78 679.83C597.24 681.83 593.84 682.26 590.71 683.08C587.58 683.9 584.22 685.54 583.25 688.65C583.186 688.843 583.136 689.04 583.1 689.24C582.53 692.1 584.26 695.14 586.7 696.82C589.3 698.61 592.54 699.16 595.7 699.57C598.86 699.98 602.06 700.27 604.89 701.68C607.34 702.89 609.4 704.88 611.99 705.76L612.46 705.89C611.87 706.24 611.29 706.58 610.68 706.89C607.998 708.277 605.1 709.2 602.11 709.62C599.11 710.03 595.49 710.23 593.94 712.86C592.67 715.03 593.59 717.97 595.42 719.69C597.25 721.41 599.79 722.17 602.24 722.69C607.85 723.79 613.531 724.495 619.24 724.8L624.78 725.23C630.19 725.64 635.61 726.06 641.05 726.08C647.755 726.102 654.449 725.519 661.05 724.34C661.311 724.362 661.574 724.324 661.818 724.229C662.062 724.134 662.281 723.984 662.457 723.791C662.634 723.597 662.764 723.366 662.838 723.114C662.911 722.863 662.925 722.598 662.88 722.34C662.762 715.546 661.937 708.783 660.42 702.16C659.96 700.16 657.25 702.89 655.74 704.6C655.53 703.6 655.31 702.6 655.05 701.67L656.24 701.11C657.149 700.763 657.916 700.122 658.42 699.29C658.662 698.618 658.741 697.898 658.65 697.19C658.43 692.83 658.16 688.31 656.09 684.48C654.74 682.189 653.055 680.112 651.09 678.32C650.618 664.607 648.945 650.961 646.09 637.54C644.56 630.71 642.66 623.8 638.71 618.02C638.21 617.3 637.71 616.58 637.14 615.85C636.713 609.281 635.918 602.74 634.76 596.26C634.529 595.405 634.529 594.505 634.76 593.65C635.139 592.916 635.624 592.242 636.2 591.65C638.58 588.58 637.61 584.22 637.33 580.34C636.94 574.78 638.25 569.25 639.56 563.82L644.39 543.73C644.785 541.825 645.354 539.961 646.09 538.16C647.36 535.72 648.815 533.38 650.44 531.16C654.951 524.052 657.074 515.689 656.5 507.29C657.42 507.62 658.33 507.95 659.23 508.29C659.91 502.68 657.54 496.29 659.23 491.04C662.139 488.921 664.487 486.123 666.07 482.89C667.4 479.89 667.77 476.59 669.16 473.65C669.94 471.99 671.04 470.47 671.5 468.65C672.18 465.99 671.32 463.19 671.36 460.44C671.45 454.44 675.78 448.91 674.85 443.01C674.4 440.21 672.77 437.6 672.85 434.76C672.984 433.22 673.373 431.713 674 430.3C677.3 421.59 680.53 412.3 678.85 403.15C678.42 400.8 677.66 398.47 677.79 396.09C677.93 393.36 679.22 390.71 678.79 388C678.628 386.971 678.212 385.998 677.58 385.17C678.758 383.359 679.763 381.44 680.58 379.44C681.122 378.294 681.392 377.038 681.37 375.77C681.255 374.907 680.967 374.077 680.524 373.327C680.08 372.578 679.491 371.926 678.79 371.41C677.379 370.401 675.871 369.533 674.29 368.82C673.794 368.599 673.348 368.279 672.98 367.88C672.698 367.429 672.451 366.958 672.24 366.47C671.36 364.94 669.44 364.47 667.94 363.54C662.49 360.21 663.01 351.64 658.36 347.26C656.777 345.841 654.757 345.006 652.634 344.894C650.512 344.781 648.414 345.397 646.69 346.64C646.251 347.089 645.673 347.374 645.05 347.45C644.448 347.328 643.895 347.033 643.46 346.6C642.303 345.821 640.923 345.438 639.53 345.51C638.675 342.099 638.305 338.584 638.43 335.07H638.85C639.4 335.087 639.949 335.023 640.48 334.88C642.87 334.19 644.23 331.71 645.21 329.41C646.055 327.464 646.757 325.459 647.31 323.41C647.36 323.21 647.4 323.02 647.45 322.82C652.03 326.04 657.35 329.41 658.63 328.7C660.97 327.41 648.13 318.27 648.13 318.27C649.64 316.93 650.48 314.51 650.86 312.37C651.768 308.118 651.802 303.726 650.96 299.46C649.96 295.25 647.43 291.24 643.59 289.27C641.89 288.39 639.83 287.79 638.59 286.44C638.401 286.24 638.237 286.018 638.1 285.78V285.78C638.031 285.667 637.967 285.55 637.91 285.43C637.779 285.057 637.597 284.704 637.37 284.38C636.67 283.56 635.37 283.81 634.37 283.94H634.02H633.74H633.45C629.64 284.02 625.95 281.89 622.1 281.89C617.88 281.89 614.28 284.34 610.57 286.02C609.82 286.36 609.11 286.67 608.44 287.02C606.11 288.11 604.28 289.26 603.11 291.88C602.37 292.748 601.84 293.775 601.56 294.88C601.445 295.386 601.378 295.902 601.36 296.42C598.157 299.591 595.85 303.553 594.673 307.903C593.496 312.254 593.49 316.838 594.657 321.191C595.824 325.545 598.121 329.512 601.316 332.69C604.512 335.869 608.491 338.146 612.85 339.29C612.94 339.54 613.04 339.79 613.12 340.05C613.883 342.349 614.258 344.758 614.23 347.18C614.23 347.35 614.23 347.52 614.23 347.7C612.289 348.158 610.43 348.914 608.72 349.94C606.538 351.23 604.887 353.254 604.06 355.65C604.01 355.84 603.96 356.02 603.92 356.19C602.563 355.743 601.148 355.501 599.72 355.47C599.076 355.378 598.42 355.428 597.796 355.614C597.173 355.8 596.598 356.12 596.11 356.55C595.782 356.956 595.549 357.432 595.43 357.94C594.94 358.39 594.85 359.18 594.5 359.78C593.43 361.66 590.64 361.04 588.5 361.56C586.22 362.12 584.42 364.26 582.08 364.27C581.187 364.133 580.281 364.099 579.38 364.17C578.5 364.39 577.81 365.6 578.48 366.17C577.954 366.116 577.423 366.209 576.946 366.438C576.469 366.668 576.066 367.025 575.78 367.47C575.13 368.31 574.71 369.31 573.99 370.1C573.682 369.669 573.255 369.337 572.761 369.145C572.267 368.953 571.728 368.91 571.21 369.02C570.175 369.248 569.182 369.64 568.27 370.18C567.863 370.398 567.424 370.55 566.97 370.63C566.439 370.663 565.907 370.616 565.39 370.49C562.879 370.07 560.3 370.419 557.99 371.49C555.99 372.49 553.99 370.68 551.75 370.54C550.929 370.585 550.12 370.333 549.47 369.83C549.048 369.304 548.754 368.688 548.61 368.03C548.106 366.586 547.24 365.296 546.095 364.282C544.95 363.268 543.564 362.565 542.07 362.24C542.653 360.4 542.516 358.407 541.686 356.664C540.856 354.921 539.396 353.558 537.6 352.85C537.746 351.531 537.567 350.196 537.079 348.962C536.591 347.728 535.808 346.632 534.8 345.77C534.306 345.44 533.837 345.072 533.4 344.67C532.806 343.968 532.363 343.151 532.1 342.27C531.433 340.523 530.767 338.773 530.1 337.02C529.23 336.84 528.54 336.48 527.71 336.34C527.71 336.16 527.71 335.98 527.71 335.8C527.684 334.004 527.38 332.223 526.81 330.52C525.79 327.756 524.361 325.16 522.57 322.82C520.68 320.17 518.57 317.57 515.76 315.97C514.82 315.467 513.852 315.02 512.86 314.63L507.75 312.52C507.458 312.382 507.142 312.301 506.82 312.28C505.44 312.28 505.19 314.4 505.97 315.54C507.53 317.83 511.03 318.47 512.02 321.07C511.189 321.099 510.388 321.39 509.732 321.902C509.076 322.414 508.6 323.12 508.37 323.92C508.332 324.342 508.16 324.742 507.88 325.06C507.43 325.43 506.72 325.22 506.21 325.5C505.3 325.98 505.7 327.34 505.6 328.37C505.38 329.263 505.068 330.131 504.67 330.96C504.455 331.759 504.422 332.597 504.575 333.41C504.727 334.224 505.06 334.993 505.55 335.66V335.66ZM628.05 693.93L627.93 692.35C628.04 692.63 628.14 692.92 628.25 693.2C629.15 695.56 630.15 697.893 631.25 700.2L631.06 700.11C630.287 699.755 629.464 699.519 628.62 699.41C628.4 699.41 628.17 699.36 627.94 699.35C628.236 697.558 628.273 695.733 628.05 693.93V693.93Z" fill="url(#paint0_linear)"/>
<path d="M614.2 349.22C614.1 352.95 612.84 356.57 612.64 360.29C623.64 360.84 634.47 355.51 645.34 357.14C642.34 355.14 640.68 351.63 639.72 348.14C638.501 343.638 638.138 338.946 638.65 334.31C638.678 334.051 638.721 333.794 638.78 333.54C639.19 331.72 640.23 329.14 639.95 327.7C639.58 325.8 637.79 326.18 636.18 326.29C631.263 326.659 626.37 327.29 621.52 328.18C620.25 328.4 607.94 331.47 607.76 331.18C609.918 334.65 611.704 338.336 613.09 342.18C613.846 344.449 614.221 346.828 614.2 349.22Z" fill="#EE8E9E"/>
<path d="M505.55 337.69C506.489 338.983 507.619 340.126 508.9 341.08C509.74 341.76 510.59 342.46 511.48 343.08C513.078 344.307 514.979 345.078 516.98 345.31C519.59 345.49 525.15 343.95 526.78 341.71C527.462 340.583 527.786 339.275 527.71 337.96C527.684 336.174 527.38 334.403 526.81 332.71C525.79 329.955 524.36 327.369 522.57 325.04C520.68 322.41 518.57 319.82 515.76 318.23C514.822 317.726 513.854 317.282 512.86 316.9L507.75 314.78C507.458 314.642 507.142 314.561 506.82 314.54C505.44 314.54 505.19 316.65 505.97 317.78C507.53 320.06 511.03 320.7 512.02 323.29C511.189 323.311 510.388 323.598 509.731 324.107C509.074 324.616 508.598 325.321 508.37 326.12C508.332 326.542 508.16 326.942 507.88 327.26C507.43 327.62 506.72 327.42 506.21 327.69C505.3 328.17 505.7 329.53 505.6 330.55C505.377 331.439 505.065 332.303 504.67 333.13C504.47 333.908 504.446 334.72 504.598 335.509C504.75 336.297 505.075 337.042 505.55 337.69V337.69Z" fill="#EE8E9E"/>
<path d="M657.05 711.78C656.2 710.94 654.82 711.08 653.64 711.27C647.281 712.26 640.856 712.765 634.42 712.78C633.62 708.86 635.95 705.04 636.7 701.11C636.804 700.078 637.06 699.067 637.46 698.11C638.37 696.37 640.46 695.58 642.32 695.18C645.77 694.45 651.17 693.18 653.1 696.65C655.41 700.88 656.15 707.07 657.05 711.78Z" fill="#65617D"/>
<path d="M586.78 696.91C589.38 698.69 592.62 699.24 595.78 699.65C598.94 700.06 602.14 700.35 604.97 701.74C607.42 702.95 609.48 704.93 612.07 705.8C614.48 706.465 617.02 706.506 619.45 705.92C622.36 705.37 625.45 704.31 627.03 701.8C628.43 699.56 628.28 696.73 628.09 694.1C627.86 691.1 627.65 688.1 627.43 685.17C627.436 684.413 627.243 683.669 626.87 683.01C624.77 679.94 619.65 684.29 616.87 684.29C612.53 684.29 607.87 681.93 604.74 679.05C604.465 678.767 604.148 678.527 603.8 678.34C602.56 677.79 601.33 678.81 600.23 679.71L599.86 680.01C597.32 682.01 593.92 682.43 590.79 683.24C587.66 684.05 584.3 685.69 583.33 688.78C583.266 688.976 583.216 689.177 583.18 689.38C582.61 692.22 584.34 695.25 586.78 696.91Z" fill="#3F3D56"/>
<path opacity="0.05" d="M586.78 696.91C589.38 698.69 592.62 699.24 595.78 699.65C598.94 700.06 602.14 700.35 604.97 701.74C607.42 702.95 609.48 704.93 612.07 705.8C614.48 706.465 617.02 706.506 619.45 705.92C622.36 705.37 625.45 704.31 627.03 701.8C628.43 699.56 628.28 696.73 628.09 694.1C627.86 691.1 627.65 688.1 627.43 685.17C627.436 684.413 627.243 683.669 626.87 683.01C624.77 679.94 619.65 684.29 616.87 684.29C612.53 684.29 607.87 681.93 604.74 679.05C604.465 678.767 604.148 678.527 603.8 678.34C602.56 677.79 601.33 678.81 600.23 679.71L599.86 680.01C597.32 682.01 593.92 682.43 590.79 683.24C587.66 684.05 584.3 685.69 583.33 688.78C583.266 688.976 583.216 689.177 583.18 689.38C582.61 692.22 584.34 695.25 586.78 696.91Z" fill="black"/>
<path d="M586.78 697.91C589.38 699.69 592.62 700.24 595.78 700.65C598.94 701.06 602.14 701.35 604.97 702.74C607.42 703.95 609.48 705.93 612.07 706.8C614.48 707.465 617.02 707.506 619.45 706.92C622.545 706.262 625.264 704.426 627.03 701.8C628.43 699.56 628.28 696.73 628.09 694.1C627.86 691.1 627.65 688.1 627.43 685.17C627.436 684.413 627.243 683.669 626.87 683.01C624.77 679.94 619.65 684.29 616.87 684.29C612.53 684.29 607.87 681.93 604.74 679.05C604.465 678.767 604.148 678.527 603.8 678.34C602.56 677.79 601.33 678.81 600.23 679.71C600.941 681.936 601.95 684.055 603.23 686.01C604.278 687.657 605.68 689.05 607.333 690.088C608.987 691.126 610.851 691.782 612.79 692.01C614.73 692.15 616.72 691.77 618.6 692.27C620.48 692.77 622.22 694.69 621.6 696.51C620.98 698.33 618.65 698.68 616.76 698.78C614.121 699.083 611.449 698.893 608.88 698.22C607.34 697.71 605.88 696.86 604.44 696.22C598.07 693.59 590.04 695.06 584.79 690.61C584.291 690.152 583.753 689.741 583.18 689.38C581.8 692.26 584.34 696.25 586.78 697.91Z" fill="#E8EAF2"/>
<path opacity="0.05" d="M586.78 697.91C589.38 699.69 592.62 700.24 595.78 700.65C598.94 701.06 602.14 701.35 604.97 702.74C607.42 703.95 609.48 705.93 612.07 706.8C614.48 707.465 617.02 707.506 619.45 706.92C622.545 706.262 625.264 704.426 627.03 701.8C628.43 699.56 628.28 696.73 628.09 694.1C627.86 691.1 627.65 688.1 627.43 685.17C627.436 684.413 627.243 683.669 626.87 683.01C624.77 679.94 619.65 684.29 616.87 684.29C612.53 684.29 607.87 681.93 604.74 679.05C604.465 678.767 604.148 678.527 603.8 678.34C602.56 677.79 601.33 678.81 600.23 679.71C600.941 681.936 601.95 684.055 603.23 686.01C604.278 687.657 605.68 689.05 607.333 690.088C608.987 691.126 610.851 691.782 612.79 692.01C614.73 692.15 616.72 691.77 618.6 692.27C620.48 692.77 622.22 694.69 621.6 696.51C620.98 698.33 618.65 698.68 616.76 698.78C614.121 699.083 611.449 698.893 608.88 698.22C607.34 697.71 605.88 696.86 604.44 696.22C598.07 693.59 590.04 695.06 584.79 690.61C584.291 690.152 583.753 689.741 583.18 689.38C581.8 692.26 584.34 696.25 586.78 697.91Z" fill="black"/>
<path d="M655.81 503.26C657.836 513.212 655.91 523.563 650.44 532.12C648.813 534.339 647.359 536.679 646.09 539.12C645.354 540.91 644.785 542.765 644.39 544.66L639.56 564.66C638.25 570.06 636.94 575.56 637.33 581.09C637.61 584.95 638.58 589.29 636.2 592.34C635.626 592.933 635.14 593.607 634.76 594.34C634.531 595.191 634.531 596.088 634.76 596.94C637.2 611.45 639.01 626.62 634.6 640.66C630.6 653.39 630.37 667.49 626.97 680.38C626.694 682.019 625.963 683.547 624.86 684.79C623.948 685.551 622.857 686.067 621.69 686.29C616.69 687.49 611.39 686.09 606.69 683.92C603.41 682.4 599.87 679.73 600.15 676.12C600.29 674.41 601.29 672.9 601.97 671.32C603.31 668.22 603.41 664.75 603.77 661.39C604.68 652.96 607.28 644.81 609.24 636.56C611.2 628.31 612.54 619.69 610.88 611.37C607.485 594.163 602.043 577.424 594.67 561.51C594.351 560.665 593.845 559.902 593.19 559.28C592.436 558.841 591.72 558.339 591.05 557.78C590.525 556.996 590.183 556.104 590.05 555.17C589.32 552.54 587.15 550.6 585.69 548.28C582.01 542.44 583.18 534.96 583.32 528.06C583.45 521.36 582.48 514.59 583.58 507.97C584.68 501.35 588.47 494.58 594.85 492.51C598.01 491.51 601.43 491.72 604.74 492.04C622.34 493.78 639.36 496.96 655.81 503.26Z" fill="#303D5C"/>
<path opacity="0.05" d="M655.81 503.26C657.836 513.212 655.91 523.563 650.44 532.12C648.813 534.339 647.359 536.679 646.09 539.12C645.354 540.91 644.785 542.765 644.39 544.66L639.56 564.66C638.25 570.06 636.94 575.56 637.33 581.09C637.61 584.95 638.58 589.29 636.2 592.34C635.626 592.933 635.14 593.607 634.76 594.34C634.531 595.191 634.531 596.088 634.76 596.94C637.2 611.45 639.01 626.62 634.6 640.66C630.6 653.39 630.37 667.49 626.97 680.38C626.694 682.019 625.963 683.547 624.86 684.79C623.948 685.551 622.857 686.067 621.69 686.29C616.69 687.49 611.39 686.09 606.69 683.92C603.41 682.4 599.87 679.73 600.15 676.12C600.29 674.41 601.29 672.9 601.97 671.32C603.31 668.22 603.41 664.75 603.77 661.39C604.68 652.96 607.28 644.81 609.24 636.56C611.2 628.31 612.54 619.69 610.88 611.37C607.485 594.163 602.043 577.424 594.67 561.51C594.351 560.665 593.845 559.902 593.19 559.28C592.436 558.841 591.72 558.339 591.05 557.78C590.525 556.996 590.183 556.104 590.05 555.17C589.32 552.54 587.15 550.6 585.69 548.28C582.01 542.44 583.18 534.96 583.32 528.06C583.45 521.36 582.48 514.59 583.58 507.97C584.68 501.35 588.47 494.58 594.85 492.51C598.01 491.51 601.43 491.72 604.74 492.04C622.34 493.78 639.36 496.96 655.81 503.26Z" fill="black"/>
<path d="M584.44 545.32C584.498 547.928 584.793 550.525 585.32 553.08C588.407 570.413 591.7 587.697 595.2 604.93C595.51 606.43 595.81 607.93 596.2 609.39C597.499 614.191 599.777 618.671 602.89 622.55C617.45 640.7 618.71 667.05 626.6 688.94C627.14 690.42 627.67 691.94 628.24 693.37C629.666 697.079 631.292 700.707 633.11 704.24C633.322 704.754 633.667 705.203 634.11 705.54C634.603 705.781 635.153 705.884 635.7 705.84C642.807 705.883 649.829 704.288 656.22 701.18C657.128 700.837 657.896 700.2 658.4 699.37C658.642 698.702 658.721 697.985 658.63 697.28C658.41 692.94 658.14 688.45 656.07 684.63C654.717 682.353 653.031 680.29 651.07 678.51C650.599 664.869 648.926 651.297 646.07 637.95C644.54 631.15 642.64 624.28 638.69 618.53C635.78 614.29 631.6 610.1 632.11 604.98C632.34 602.73 633.28 599.93 631.45 598.61C630.65 598.03 629.45 597.96 628.93 597.13C628.71 596.742 628.59 596.306 628.58 595.86C628.202 592.349 628.418 588.799 629.22 585.36C629.89 583.113 630.414 580.825 630.79 578.51C630.969 577.349 630.908 576.164 630.613 575.027C630.317 573.891 629.792 572.826 629.07 571.9C628.97 567.22 629.07 562.37 629.01 557.7C628.824 555.042 629.043 552.372 629.66 549.78C630.02 548.56 630.56 547.39 630.83 546.14C631.83 541.65 629.37 536.27 632.27 532.71C633.48 531.24 635.35 530.5 636.93 529.43C640.036 527.169 642.291 523.929 643.33 520.23C644.355 516.557 644.962 512.779 645.14 508.97C645.225 508.162 645.225 507.348 645.14 506.54C645.084 506.124 644.973 505.717 644.81 505.33C643.91 503.33 641.48 502.51 639.32 501.99C625.597 498.702 611.531 497.057 597.42 497.09C592.2 493.54 589.26 494.81 587.05 498.58C585.826 500.874 584.838 503.287 584.1 505.78C583.1 508.84 583.03 525.93 582.04 529C580.79 532.99 584.49 541.14 584.44 545.32Z" fill="#303D5C"/>
<path d="M678.83 389.78C679.21 392.47 677.92 395.11 677.83 397.78C677.7 400.16 678.46 402.47 678.89 404.78C680.57 413.89 677.34 423.12 674.04 431.78C673.414 433.186 673.026 434.687 672.89 436.22C672.8 439.05 674.43 441.64 674.89 444.43C675.82 450.3 671.49 455.82 671.4 461.76C671.4 464.5 672.22 467.28 671.54 469.93C670.916 471.646 670.132 473.3 669.2 474.87C667.81 477.79 667.44 481.11 666.11 484.06C663.72 489.4 658.58 492.88 653.68 496.06C650.9 495.13 647.89 494.06 646.36 491.53C645.686 490.289 645.252 488.932 645.08 487.53C644.02 481.45 644.08 475.24 644.08 469.07C643.989 463.764 644.27 458.457 644.92 453.19C645.92 446.48 648.09 440.02 649.65 433.43C651.65 425.11 652.65 416.52 655.65 408.54C658.34 401.54 662.54 395.24 666.95 389.22C668.64 386.92 669.95 383.63 673.24 384.16C674.639 384.403 675.928 385.074 676.929 386.081C677.93 387.087 678.594 388.38 678.83 389.78V389.78Z" fill="#3F3D56"/>
<path opacity="0.05" d="M678.83 389.78C679.21 392.47 677.92 395.11 677.83 397.78C677.7 400.16 678.46 402.47 678.89 404.78C680.57 413.89 677.34 423.12 674.04 431.78C673.414 433.186 673.026 434.687 672.89 436.22C672.8 439.05 674.43 441.64 674.89 444.43C675.82 450.3 671.49 455.82 671.4 461.76C671.4 464.5 672.22 467.28 671.54 469.93C670.916 471.646 670.132 473.3 669.2 474.87C667.81 477.79 667.44 481.11 666.11 484.06C663.72 489.4 658.58 492.88 653.68 496.06C650.9 495.13 647.89 494.06 646.36 491.53C645.686 490.289 645.252 488.932 645.08 487.53C644.02 481.45 644.08 475.24 644.08 469.07C643.989 463.764 644.27 458.457 644.92 453.19C645.92 446.48 648.09 440.02 649.65 433.43C651.65 425.11 652.65 416.52 655.65 408.54C658.34 401.54 662.54 395.24 666.95 389.22C668.64 386.92 669.95 383.63 673.24 384.16C674.639 384.403 675.928 385.074 676.929 386.081C677.93 387.087 678.594 388.38 678.83 389.78V389.78Z" fill="black"/>
<path opacity="0.1" d="M607.76 331.14C609.918 334.609 611.704 338.296 613.09 342.14C615.07 342.627 617.101 342.872 619.14 342.87C627.06 342.87 632.67 338.37 637.32 332.68C637.72 330.85 640.23 329.15 639.95 327.68C639.58 325.78 637.79 326.16 636.18 326.27C631.263 326.639 626.37 327.27 621.52 328.16C620.25 328.39 607.94 331.46 607.76 331.14Z" fill="black"/>
<path d="M619.14 342.17C633.151 342.17 644.51 330.811 644.51 316.8C644.51 302.789 633.151 291.43 619.14 291.43C605.129 291.43 593.77 302.789 593.77 316.8C593.77 330.811 605.129 342.17 619.14 342.17Z" fill="#EE8E9E"/>
<path opacity="0.1" d="M587.05 498.58C591.44 498.32 595.86 498.49 600.27 498.67C603.027 498.699 605.775 498.98 608.48 499.51C611.81 500.27 614.93 501.79 618.21 502.74C623.48 504.27 629.03 504.34 634.48 504.87C638.062 505.222 641.622 505.779 645.14 506.54C645.084 506.124 644.973 505.717 644.81 505.33C643.91 503.33 641.48 502.51 639.32 501.99C625.597 498.702 611.531 497.057 597.42 497.09C592.23 493.54 589.29 494.78 587.05 498.58Z" fill="black"/>
<path d="M604.37 358.33C605.48 359.61 606.96 361.02 608.6 360.61C609.193 360.402 609.75 360.101 610.25 359.72C613.17 357.84 616.76 357.4 620.2 356.88C627.137 355.831 633.991 354.291 640.71 352.27C642.657 351.561 644.7 351.146 646.77 351.04C651.07 351.04 654.88 353.92 657.58 357.27C660.28 360.62 662.18 364.54 664.83 367.93C666.71 370.35 668.95 372.48 670.71 374.99C675.16 381.32 676.11 389.58 674.96 397.23C673.81 404.88 670.76 412.09 667.73 419.23C666.116 423.365 664.142 427.35 661.83 431.14C662.83 436.95 662.31 443.6 659.55 448.81C658.65 450.51 657.55 452.16 657.25 454.06C657.113 455.344 657.167 456.642 657.41 457.91L658.7 467.1C659.09 469.9 659.48 472.7 659.99 475.47C660.92 480.56 662.19 486.08 659.83 490.68C657.01 496.19 659.98 503.25 659.23 509.4C651.294 506.331 642.978 504.357 634.51 503.53C629.06 502.99 623.51 502.92 618.24 501.39C614.96 500.39 611.84 498.92 608.51 498.16C605.805 497.63 603.057 497.349 600.3 497.32C594.22 497.08 588.1 496.83 582.08 497.73C581.59 497.8 581 497.84 580.71 497.45C580.578 497.234 580.512 496.983 580.52 496.73C580.43 494.474 580.97 492.237 582.08 490.27C582.85 488.92 583.91 487.59 583.88 486.03C583.827 485.304 583.648 484.594 583.35 483.93L580.69 476.78C578.44 470.78 579.51 463.78 578.34 457.5C577.427 452.571 576.843 447.587 576.59 442.58C576.37 438.3 576.5 433.67 579.09 430.25C579.861 429.428 580.532 428.519 581.09 427.54C581.454 426.501 581.61 425.4 581.55 424.3C581.61 415.74 581.377 407.183 580.85 398.63C583.1 394.63 585.44 390.45 587.7 386.41C590.32 381.7 592.97 376.9 594.03 371.62C594.73 368.12 594.71 364.53 595.21 361C595.19 360.442 595.302 359.887 595.536 359.38C595.77 358.872 596.121 358.428 596.559 358.081C596.997 357.735 597.511 357.496 598.058 357.384C598.605 357.273 599.171 357.292 599.71 357.44C601.299 357.5 602.871 357.8 604.37 358.33V358.33Z" fill="#3F3D56"/>
<path opacity="0.1" d="M511.48 343.09C513.078 344.317 514.979 345.088 516.98 345.32C519.59 345.5 525.15 343.96 526.78 341.72C527.462 340.593 527.786 339.285 527.71 337.97C527.358 337.851 526.991 337.781 526.62 337.76C523.783 337.437 520.912 337.551 518.11 338.1C516.703 338.382 515.378 338.978 514.233 339.844C513.088 340.71 512.154 341.823 511.5 343.1C511.5 343.1 511.49 343.08 511.48 343.09Z" fill="black"/>
<path d="M595.9 397.96C594.35 399.88 592.74 401.86 590.55 402.96C588.03 404.27 585.06 404.3 582.22 404.24C570.53 403.991 558.885 402.709 547.42 400.41C546.116 400.193 544.834 399.859 543.59 399.41C542.21 398.752 540.908 397.94 539.71 396.99C535.94 394.28 532.11 391.51 529.24 387.85C525.834 383.44 523.694 378.185 523.05 372.65C520.32 370.13 518.87 366.56 517.51 363.11C516.829 361.646 516.4 360.077 516.24 358.47C516.17 356.83 517.24 355.11 516.95 353.47C516.429 350.69 515.026 348.151 512.95 346.23C512.49 345.924 512.139 345.479 511.95 344.96C511.891 344.533 511.972 344.098 512.18 343.72C512.838 342.445 513.773 341.334 514.917 340.469C516.061 339.604 517.384 339.006 518.79 338.72C521.596 338.176 524.469 338.062 527.31 338.38C528.253 338.558 529.183 338.806 530.09 339.12L532.09 344.34C532.353 345.218 532.796 346.032 533.39 346.73C533.828 347.132 534.296 347.5 534.79 347.83C535.792 348.68 536.571 349.762 537.059 350.982C537.547 352.202 537.729 353.523 537.59 354.83C539.384 355.526 540.844 356.879 541.675 358.615C542.505 360.35 542.643 362.337 542.06 364.17C543.552 364.491 544.936 365.188 546.081 366.197C547.226 367.205 548.093 368.491 548.6 369.93C548.744 370.585 549.038 371.198 549.46 371.72C550.112 372.219 550.92 372.471 551.74 372.43C553.98 372.56 555.94 374.33 557.98 373.37C560.29 372.299 562.869 371.95 565.38 372.37C565.898 372.486 566.429 372.533 566.96 372.51C567.414 372.43 567.853 372.278 568.26 372.06C569.174 371.524 570.166 371.133 571.2 370.9C571.718 370.792 572.256 370.837 572.75 371.029C573.243 371.22 573.67 371.551 573.98 371.98C574.7 371.2 575.12 370.2 575.77 369.36C576.058 368.917 576.462 368.563 576.939 368.335C577.415 368.108 577.945 368.016 578.47 368.07C577.8 367.47 578.47 366.27 579.37 366.07C580.271 366.004 581.176 366.038 582.07 366.17C584.41 366.17 586.21 364.03 588.49 363.47C590.59 362.96 593.38 363.57 594.49 361.7C594.87 361.04 594.95 360.14 595.6 359.7C596.036 359.481 596.536 359.425 597.01 359.54C598.5 359.73 599.946 360.169 601.29 360.84C603.49 369.43 602.29 378.35 600.66 387.07C600.046 391.052 598.406 394.805 595.9 397.96Z" fill="#3F3D56"/>
<path opacity="0.1" d="M595.96 428.78L606.89 450.78C605.71 448.78 603.22 447.95 601.25 446.65C598.753 444.847 596.871 442.319 595.86 439.41C594.868 436.512 594.178 433.52 593.8 430.48C593.58 429.08 593.11 427.12 593.8 425.86C595.05 426.12 595.45 427.72 595.96 428.78Z" fill="black"/>
<path opacity="0.1" d="M627.4 447.46C629.87 449.9 632.88 451.69 635.6 453.85C641.93 458.85 646.45 465.85 650.86 472.62C652.108 474.391 653.155 476.296 653.98 478.3C653.46 478.74 652.69 478.3 652.18 477.83L643.6 470.29C642.546 469.431 641.588 468.463 640.74 467.4C639.25 465.4 638.59 462.89 637.24 460.79C635.764 458.775 634.006 456.983 632.02 455.47C630.02 453.78 621.02 446.13 623.2 443.15C624.8 443.96 626.1 446.17 627.4 447.46Z" fill="black"/>
<path d="M608.66 351.96C611.473 350.402 614.553 349.385 617.74 348.96C619.631 348.53 621.577 348.391 623.51 348.55C625.3 348.77 627.01 349.46 628.81 349.55C631.33 349.69 633.75 348.67 636.19 348C638.63 347.33 641.44 347.08 643.49 348.55C643.926 348.983 644.478 349.278 645.08 349.4C645.703 349.324 646.281 349.039 646.72 348.59C648.447 347.354 650.543 346.742 652.664 346.855C654.784 346.968 656.804 347.798 658.39 349.21C663.04 353.57 662.52 362.09 667.97 365.4C669.47 366.31 671.39 366.79 672.27 368.32C672.491 368.827 672.752 369.315 673.05 369.78C673.416 370.179 673.862 370.496 674.36 370.71C675.943 371.42 677.451 372.287 678.86 373.3C679.56 373.81 680.15 374.457 680.593 375.201C681.037 375.945 681.325 376.771 681.44 377.63C681.462 378.891 681.191 380.141 680.65 381.28C677.979 387.821 673.349 393.376 667.396 397.182C661.443 400.989 654.459 402.86 647.4 402.54C646.147 402.601 644.914 402.214 643.92 401.45C643.398 400.861 642.985 400.184 642.7 399.45C640.13 394.08 635.32 390.11 632.26 385C630.44 381.95 629.26 378.55 627.38 375.55C624.5 371 620.13 367.64 615.85 364.39C613.44 362.55 610.75 360.62 607.72 360.75C605.02 360.86 603.05 361.01 604.04 357.69C604.85 355.292 606.488 353.26 608.66 351.96V351.96Z" fill="#3F3D56"/>
<path opacity="0.05" d="M608.66 351.96C611.473 350.402 614.553 349.385 617.74 348.96C619.631 348.53 621.577 348.391 623.51 348.55C625.3 348.77 627.01 349.46 628.81 349.55C631.33 349.69 633.75 348.67 636.19 348C638.63 347.33 641.44 347.08 643.49 348.55C643.926 348.983 644.478 349.278 645.08 349.4C645.703 349.324 646.281 349.039 646.72 348.59C648.447 347.354 650.543 346.742 652.664 346.855C654.784 346.968 656.804 347.798 658.39 349.21C663.04 353.57 662.52 362.09 667.97 365.4C669.47 366.31 671.39 366.79 672.27 368.32C672.491 368.827 672.752 369.315 673.05 369.78C673.416 370.179 673.862 370.496 674.36 370.71C675.943 371.42 677.451 372.287 678.86 373.3C679.56 373.81 680.15 374.457 680.593 375.201C681.037 375.945 681.325 376.771 681.44 377.63C681.462 378.891 681.191 380.141 680.65 381.28C677.979 387.821 673.349 393.376 667.396 397.182C661.443 400.989 654.459 402.86 647.4 402.54C646.147 402.601 644.914 402.214 643.92 401.45C643.398 400.861 642.985 400.184 642.7 399.45C640.13 394.08 635.32 390.11 632.26 385C630.44 381.95 629.26 378.55 627.38 375.55C624.5 371 620.13 367.64 615.85 364.39C613.44 362.55 610.75 360.62 607.72 360.75C605.02 360.86 603.05 361.01 604.04 357.69C604.85 355.292 606.488 353.26 608.66 351.96V351.96Z" fill="black"/>
<path d="M595.45 719.69C597.29 721.41 599.82 722.16 602.27 722.69C607.881 723.786 613.561 724.488 619.27 724.79L624.81 725.21C630.22 725.62 635.64 726.04 641.08 726.06C647.785 726.085 654.479 725.506 661.08 724.33C661.342 724.357 661.607 724.322 661.853 724.228C662.099 724.134 662.319 723.984 662.497 723.79C662.675 723.595 662.805 723.362 662.876 723.109C662.948 722.855 662.96 722.589 662.91 722.33C662.792 715.573 661.968 708.846 660.45 702.26C659.82 699.55 654.97 705.62 654.75 705.87C654.249 706.579 653.59 707.16 652.824 707.568C652.058 707.976 651.207 708.2 650.34 708.22C644.76 708.52 638.51 705.13 634.07 702.11C633.124 701.405 632.12 700.779 631.07 700.24C630.295 699.892 629.473 699.66 628.63 699.55C625.758 699.279 622.87 699.864 620.33 701.23C617 702.88 614.07 705.23 610.77 706.96C608.087 708.341 605.189 709.257 602.2 709.67C599.2 710.09 595.58 710.29 594.03 712.9C592.7 715.06 593.62 717.98 595.45 719.69Z" fill="#3F3D56"/>
<path d="M595.45 720.69C597.29 722.41 599.82 723.16 602.27 723.69C607.881 724.786 613.561 725.488 619.27 725.79L624.81 726.21C630.22 726.62 635.64 727.04 641.08 727.06C647.785 727.085 654.479 726.506 661.08 725.33C661.383 725.32 661.681 725.247 661.954 725.116C662.228 724.985 662.472 724.799 662.67 724.57C663.192 723.878 663.61 723.113 663.91 722.3C663.79 715.55 661.97 708.81 660.45 702.23C659.82 699.52 654.97 705.59 654.75 705.84C654.249 706.549 653.59 707.13 652.824 707.538C652.058 707.946 651.207 708.17 650.34 708.19C644.76 708.49 638.51 705.1 634.07 702.08C633.124 701.375 632.12 700.749 631.07 700.21C630.295 699.862 629.473 699.63 628.63 699.52C629.35 703.52 635.11 708.38 638.08 709.86C644.08 712.86 651.24 711.36 657.95 711.71C658.443 711.689 658.931 711.807 659.36 712.05C660.16 712.58 660.21 713.72 660.19 714.68C660.13 716.28 659.93 718.16 658.54 718.98C657.844 719.31 657.079 719.468 656.31 719.44C639.777 720.161 623.212 719.579 606.77 717.7C604.004 717.521 601.282 716.917 598.7 715.91C597.012 715.125 595.438 714.116 594.02 712.91C591.86 714.55 593.62 718.98 595.45 720.69Z" fill="#E8EAF2"/>
<path d="M609.27 316.52C609.36 319.14 607.57 324.23 612.48 322.81C615.4 321.97 616.23 318.5 619.94 319.27C623.65 320.04 624.5 324.62 625.76 327.61C626.788 329.986 628.376 332.077 630.39 333.704C632.403 335.33 634.781 336.444 637.32 336.95C638.369 337.2 639.461 337.2 640.51 336.95C642.9 336.27 644.26 333.8 645.24 331.51C646.087 329.564 646.789 327.559 647.34 325.51C647.718 324.074 647.972 322.609 648.1 321.13V321.13C648.178 320.132 648.178 319.128 648.1 318.13C647.66 312.13 644.26 306.72 639.91 302.61C635.56 298.5 630.29 295.53 625.07 292.61C623.368 291.55 621.527 290.732 619.6 290.18C617.699 289.79 615.747 289.709 613.82 289.94C611.283 290.047 608.789 290.634 606.47 291.67C605.519 292.137 604.645 292.747 603.88 293.48C602.793 294.492 602.016 295.793 601.64 297.23C600.7 301.08 603.15 304.55 605.15 307.6C606.94 310.27 609.14 313.14 609.27 316.52Z" fill="#3F3D56"/>
<path opacity="0.1" d="M526.71 372.83C527.76 370.18 532.16 362.88 530.89 360.36C529.568 362.24 528.442 364.25 527.53 366.36C526.7 368.4 527.38 371.14 526.71 372.83Z" fill="black"/>
<path opacity="0.1" d="M605.05 307.57C603.05 304.52 600.59 301.05 601.53 297.19C601.997 295.495 603 293.997 604.39 292.92C604.069 293.485 603.823 294.09 603.66 294.72C602.72 298.58 605.18 302.05 607.18 305.1C608.96 307.8 611.18 310.68 611.28 314.05C611.38 316.67 609.59 321.77 614.5 320.34C617.42 319.5 618.25 316.03 621.96 316.8C625.67 317.57 626.52 322.14 627.78 325.14C628.808 327.516 630.396 329.607 632.41 331.234C634.423 332.86 636.801 333.974 639.34 334.48C640.385 334.73 641.475 334.73 642.52 334.48C643.068 334.342 643.587 334.104 644.05 333.78C643.306 335.281 642.003 336.43 640.42 336.98C639.375 337.23 638.285 337.23 637.24 336.98C634.701 336.474 632.323 335.36 630.31 333.734C628.296 332.107 626.708 330.016 625.68 327.64C624.42 324.64 623.6 320.09 619.86 319.3C616.12 318.51 615.32 322 612.4 322.84C607.49 324.27 609.28 319.17 609.18 316.55C609.05 313.15 606.83 310.27 605.05 307.57Z" fill="black"/>
<path opacity="0.1" d="M603.96 302.36C604.422 303.102 604.926 303.816 605.47 304.5C606.507 305.81 607.669 307.016 608.94 308.1C609.689 308.749 610.47 309.36 611.28 309.93C612.795 311.001 614.389 311.954 616.05 312.78C620.92 315.057 625.992 316.875 631.2 318.21L641.33 321.16C642.58 322.1 644.85 323.8 647.33 325.55C647.708 324.114 647.962 322.649 648.09 321.17C648.168 320.172 648.168 319.168 648.09 318.17C647.65 312.17 644.25 306.76 639.9 302.65C635.55 298.54 630.28 295.57 625.06 292.65C623.358 291.59 621.517 290.772 619.59 290.22C617.689 289.83 615.737 289.749 613.81 289.98C611.273 290.087 608.779 290.674 606.46 291.71C605.509 292.177 604.635 292.787 603.87 293.52C603.299 294.365 602.861 295.292 602.57 296.27C601.95 298.28 602.83 300.51 603.96 302.36Z" fill="black"/>
<path d="M603.96 301.67C604.422 302.415 604.926 303.133 605.47 303.82C606.504 305.129 607.667 306.332 608.94 307.41C609.686 308.065 610.467 308.68 611.28 309.25C612.798 310.31 614.392 311.256 616.05 312.08C620.922 314.352 625.994 316.17 631.2 317.51L641.33 320.46C644.87 323.13 656.7 331.89 658.69 330.8C661.03 329.51 648.19 320.42 648.19 320.42L647.6 320.87C649.48 319.68 650.46 316.94 650.89 314.57C651.798 310.342 651.832 305.972 650.99 301.73C649.99 297.54 647.46 293.55 643.62 291.59C641.92 290.71 639.86 290.12 638.62 288.77C638.432 288.573 638.267 288.355 638.13 288.12C638.061 288.007 637.997 287.89 637.94 287.77C637.809 287.397 637.627 287.044 637.4 286.72C636.7 285.91 635.4 286.16 634.4 286.29H634.05H633.48C629.67 286.37 625.98 284.29 622.13 284.29C617.91 284.29 614.31 286.73 610.6 288.4L608.47 289.4C605.78 290.65 603.76 291.98 602.65 295.54C601.95 297.59 602.83 299.83 603.96 301.67Z" fill="#303D5C"/>
<path opacity="0.1" d="M633.42 286.35C633.271 286.613 633.189 286.908 633.18 287.21C633.181 287.47 633.239 287.726 633.349 287.961C633.46 288.196 633.621 288.404 633.82 288.57C634.287 288.91 634.843 289.108 635.42 289.14C635.834 289.199 636.252 289.232 636.67 289.24C637.231 289.284 637.795 289.188 638.31 288.96C638.41 288.902 638.507 288.839 638.6 288.77C638.412 288.573 638.247 288.355 638.11 288.12C638.02 288.19 637.92 288.17 637.54 288.12C636.863 288.082 636.192 287.968 635.54 287.78C635.265 287.7 635.005 287.575 634.77 287.41C634.427 287.116 634.174 286.731 634.04 286.3L633.42 286.35Z" fill="black"/>
<path opacity="0.1" d="M647.91 320.32C647.371 320.649 646.773 320.87 646.15 320.97C645.367 321.198 644.544 321.253 643.738 321.132C642.932 321.011 642.162 320.717 641.48 320.27" fill="black"/>
<path d="M223.35 406.45C221.67 395.2 211.46 368.97 211.46 368.97C211.28 368.18 211.08 367.41 210.85 366.63C203.6 341.71 193.56 339.5 193.56 339.5L157.62 331.84C157.908 332.03 158.158 332.271 158.36 332.55L157.79 332.64C156.144 330.696 155.055 328.343 154.64 325.83C154.57 325.46 154.51 325.07 154.46 324.68C157.04 322.164 159.053 319.125 160.362 315.768C161.672 312.41 162.249 308.811 162.054 305.213C161.858 301.614 160.896 298.098 159.231 294.902C157.566 291.706 155.237 288.902 152.4 286.68C152.03 286.39 151.65 286.1 151.25 285.83C152.95 284.03 153 281.52 151.74 279.02C148.9 273.13 142.74 269.41 136.42 267.6C131.58 266.21 126.33 265.76 121.54 267.28C118.856 268.276 116.254 269.483 113.76 270.89C108.98 273.28 103.76 275.16 100.13 279.08C99.6647 279.486 99.2998 279.995 99.0638 280.565C98.8279 281.136 98.7273 281.754 98.77 282.37C99.0936 283.232 99.549 284.038 100.12 284.76C101.12 286.55 100.88 288.76 100.19 290.76C99.5 292.76 98.46 294.52 97.97 296.52C97.48 298.52 97.67 300.87 99.17 302.3C99.8914 302.869 100.642 303.4 101.42 303.89C102.241 304.587 102.961 305.395 103.56 306.29L107.82 312.04C109.815 314.591 111.595 317.304 113.14 320.15C114.054 322.304 115.158 324.372 116.44 326.33C116.855 326.876 117.332 327.372 117.86 327.81L117.44 327.65C118.067 328.263 118.813 328.741 119.631 329.055C120.45 329.37 121.324 329.515 122.2 329.48H122.42C122.74 329.474 123.047 329.349 123.28 329.13V329.91C123.36 332.68 123.34 335.62 123.15 338.38L122.82 338.21C122.326 337.96 121.771 337.859 121.221 337.917C120.671 337.976 120.15 338.192 119.72 338.54L86.61 365.09C86.61 365.09 79.41 374.94 80.42 391.92L74.62 417.4C74.62 417.4 67.36 439.02 72.94 454.46C78.52 469.9 81.75 478.73 81.75 478.73C81.75 478.73 83.99 496.27 87.33 497.73C90.67 499.19 92.13 499.94 92.13 499.94L92.8 504.13C92.8 504.13 93.02 504.54 93.41 505.23C95.85 509.47 104.88 524.43 110.13 522.83C110.785 526.892 111.07 531.006 110.98 535.12L116.17 569.98C116.17 569.98 119.79 579.46 119.57 584.43C119.35 589.4 123.81 596.43 123.81 596.43C121.102 601.38 120.309 607.153 121.58 612.65C123.7 621.91 126.38 664.71 126.38 664.71L130.28 675.08L130.17 687.23C129.847 689.2 129.02 691.053 127.77 692.61C125.26 695.34 125.43 698.49 119.4 702.21C113.37 705.93 109.53 707.34 109.53 712.3C109.522 712.97 109.462 713.639 109.35 714.3C108.79 717.92 107.7 719.88 118.82 720.94C122.749 721.254 126.701 720.771 130.438 719.52C134.176 718.269 137.622 716.276 140.57 713.66C140.57 713.66 142.5 710.18 151.57 708.78C151.57 708.78 154.66 708.61 154.83 705.88C154.89 704.94 154.83 703.13 154.83 701.15C154.68 697.36 154.32 692.95 153.83 692.73C153.34 692.51 152.17 688.65 151.83 687.27H154.34C154.34 687.27 156.69 669.73 154.34 658.37C151.99 647.01 154.12 638.96 154.12 638.96L153.67 608.96C153.67 608.96 150.55 605.65 153 599.8C155.45 593.95 153 565.05 153 565.05C153 565.05 153.9 554.69 156.46 552.26C159.02 549.83 156.59 537.07 156.46 536.4L161.03 551.71C161.03 551.71 163.03 582.15 167.28 587.71L168.5 601.49C168.5 601.49 177.2 614.18 175.5 621.02C173.8 627.86 177.29 652.56 177.29 652.56V677.78C177.29 677.78 173.38 687.92 178.85 691.56L181.2 691.47C180.4 692.19 179.83 693.28 178.93 694.21C177.88 695.29 177.29 699.38 176.93 702.9C176.65 705.9 176.56 708.44 176.56 708.44C177.314 709.558 178.306 710.496 179.464 711.187C180.622 711.879 181.918 712.306 183.26 712.44C187.61 712.69 202 723.69 202 723.69C202 723.69 216.23 723.69 219.91 722.95L220.12 722.89C221.305 722.521 222.302 721.708 222.9 720.62C223.647 719.37 223.886 717.881 223.57 716.46C223.12 714.28 221.39 711.9 217.57 709.87C208.02 704.87 206.57 700.12 206.57 700.12L200.37 690.78H201.26C201.26 690.78 200.7 680.85 207.5 669.71L207.05 620.55C207.05 620.55 209.84 603.67 205.05 594.55C205.05 594.55 204.66 584.85 207.86 581.87C211.06 578.89 203.6 548.78 203.6 548.78C203.6 548.78 202.07 532.62 200.23 517.87C207.76 525.01 215.58 499.29 216.89 494.72H217.08L216.99 494.39L217.08 494.06C217.08 494.06 215.41 488.06 216.63 489.32C217.85 490.58 220.87 486.01 220.87 486.01C220.87 486.01 220.43 461.41 225.67 449.01C230.91 436.61 223.35 406.45 223.35 406.45ZM200.92 422.1V422.03C201.7 437.03 200.77 469.1 200.77 469.1C200.77 469.1 199.77 473.21 198.63 478.05L197.84 447.6L197.09 418.92L200.92 422.1ZM104.92 411.75C104.92 411.75 108.71 459.18 104.92 466.02C103.84 467.96 102.92 471.43 102.18 475.39C100.93 472.1 98.28 464.39 99.18 460.28C100.4 454.99 96.72 441.09 96.72 440.76C96.72 440.43 96.39 433.04 99.07 427.35C101.75 421.66 99.96 419.25 99.96 419.25C99.96 419.25 102.2 409.98 104.88 411.78L104.92 411.75Z" fill="url(#paint1_linear)"/>
<path d="M114.11 518.56C110.81 533.08 97.67 511.12 94.68 505.86C94.29 505.17 94.07 504.76 94.07 504.76L95.5 498.08L103.03 495.02C104.221 495.641 105.349 496.374 106.4 497.21C110.52 500.43 116.66 507.31 114.11 518.56Z" fill="#A1616A"/>
<path d="M216.05 494.78C216.05 494.78 216.05 494.89 215.97 495.1L215.86 495.46C214.58 499.99 206.91 525.52 199.52 518.46C191.42 510.69 195.36 492.83 195.36 492.83H195.41L212.41 491.08L215.78 494.55L216.05 494.78Z" fill="#A1616A"/>
<path d="M206.19 620.38L206.62 669.1C199.95 680.16 200.5 690.02 200.5 690.02L178.5 690.89C173.13 687.28 176.97 677.21 176.97 677.21V652.13C176.97 652.13 173.57 627.61 175.21 620.82C176.85 614.03 168.32 601.44 168.32 601.44L167.1 587.78C162.94 582.31 160.97 552.09 160.97 552.09L156.49 536.9C156.61 537.56 158.93 550.29 156.49 552.64C154.05 554.99 153.1 565.34 153.1 565.34C153.1 565.34 155.51 594.02 153.1 599.83C150.69 605.64 153.75 608.92 153.75 608.92L154.19 638.7C154.19 638.7 152.11 646.7 154.41 657.96C156.71 669.22 154.41 686.65 154.41 686.65H130.75L130.86 674.5L127.05 664.17C127.05 664.17 124.42 621.7 122.34 612.5C121.089 607.049 121.868 601.329 124.53 596.41C124.53 596.41 120.15 589.41 120.37 584.47C120.59 579.53 117.05 570.13 117.05 570.13L111.96 535.53C112.095 528.856 111.232 522.199 109.4 515.78C106.4 505.93 102.07 493.01 102.07 493.01L107.01 493.45L131.96 495.67C131.96 495.67 192.61 491.59 195.33 494.98C195.904 496.085 196.289 497.278 196.47 498.51C199.19 510.75 202.79 549.07 202.79 549.07C202.79 549.07 210.13 578.96 206.98 581.91C203.83 584.86 204.22 594.5 204.22 594.5C208.92 603.63 206.19 620.38 206.19 620.38Z" fill="#3F3D56"/>
<path d="M154.92 705.09C154.75 707.81 151.72 707.97 151.72 707.97C142.85 709.36 140.96 712.82 140.96 712.82C138.077 715.409 134.698 717.385 131.028 718.628C127.357 719.871 123.473 720.355 119.61 720.05C108.7 718.99 109.77 717.05 110.32 713.45C110.433 712.789 110.493 712.12 110.5 711.45C110.5 706.52 114.27 705.12 120.19 701.45C126.11 697.78 125.93 694.63 128.4 691.93C130.87 689.23 131.11 683.93 131.11 683.93C133.9 679.09 140.96 684.67 140.96 684.67C141.29 686.39 151.8 686.15 151.8 686.15C151.8 686.15 153.2 691.73 153.91 692.06C154.39 692.28 154.74 696.66 154.91 700.42C154.96 702.37 154.98 704.16 154.92 705.09Z" fill="#303D5C"/>
<path opacity="0.1" d="M154.92 705.09C154.75 707.81 151.72 707.97 151.72 707.97C142.85 709.36 140.96 712.82 140.96 712.82C138.077 715.409 134.698 717.385 131.028 718.628C127.357 719.871 123.473 720.355 119.61 720.05C108.7 718.99 109.77 717.05 110.32 713.45C115.19 714.66 124.52 716.35 129.95 713.39C137.51 709.29 142.95 706.39 142.95 706.39L154.95 700.39C154.96 702.37 154.98 704.16 154.92 705.09Z" fill="black"/>
<path d="M221.75 719.71C221.16 720.78 220.183 721.585 219.02 721.96L218.81 722.02C215.2 722.75 201.23 722.75 201.23 722.75C201.23 722.75 187.11 711.83 182.84 711.58C181.522 711.447 180.251 711.025 179.115 710.344C177.979 709.663 177.008 708.74 176.27 707.64C176.27 707.64 176.35 705.1 176.63 702.14C176.96 698.65 177.54 694.59 178.57 693.52C180.46 691.52 180.87 688.84 185.14 690.52C185.14 690.52 191.21 679.83 198.35 688.09L205.75 699.31C205.75 699.31 207.14 703.99 216.51 709C220.26 711 221.96 713.37 222.4 715.53C222.717 716.956 222.485 718.448 221.75 719.71V719.71Z" fill="#303D5C"/>
<path opacity="0.1" d="M221.75 719.71C220.91 720.41 219.99 721.18 219.02 721.96L218.81 722.02C215.2 722.75 201.23 722.75 201.23 722.75C201.23 722.75 187.11 711.83 182.84 711.58C181.522 711.447 180.251 711.025 179.115 710.344C177.979 709.663 177.008 708.74 176.27 707.64C176.27 707.64 176.35 705.1 176.63 702.14C180.97 703.45 187.56 705.74 189.33 708.22C192.03 711.99 200.26 717.22 200.26 717.22C200.26 717.22 215.59 715.75 222.4 715.54C222.715 716.962 222.483 718.451 221.75 719.71V719.71Z" fill="black"/>
<path d="M162.05 337.63L141.86 358.98C141.86 358.98 117.39 357.17 121.66 349.98C123.84 346.3 124.18 338.59 123.99 331.89C123.81 325.43 123.14 319.89 123.14 319.89C123.14 319.89 157.47 302.78 154.84 318.78C154.278 321.784 154.244 324.864 154.74 327.88C156.24 335.88 162.05 337.63 162.05 337.63Z" fill="#A1616A"/>
<path opacity="0.1" d="M154.84 318.78C154.278 321.784 154.244 324.864 154.74 327.88C150.16 332.51 143.8 331.49 136.74 331.49C132.08 331.49 127.08 331.56 123.33 329.35C123.15 322.88 123.11 319.93 123.11 319.93C123.11 319.93 157.47 302.78 154.84 318.78Z" fill="black"/>
<path d="M162.05 308.78C162.047 315.488 159.381 321.921 154.636 326.663C149.892 331.406 143.458 334.07 136.75 334.07C130.047 334.062 123.621 331.394 118.883 326.653C114.145 321.911 111.483 315.483 111.48 308.78C111.706 302.225 114.469 296.013 119.186 291.456C123.903 286.898 130.206 284.351 136.765 284.351C143.324 284.351 149.627 286.898 154.344 291.456C159.061 296.013 161.824 302.225 162.05 308.78V308.78Z" fill="#A1616A"/>
<path opacity="0.1" d="M196.47 498.55C190.18 513.55 149.66 513.85 149.66 513.85V497.51L147.21 497.35C148.27 502.03 145.72 513.44 145.72 513.44C113.72 517.96 105.9 499.73 105.9 499.73L107.01 493.49L131.96 495.71C131.96 495.71 192.61 491.63 195.33 495.02C195.904 496.125 196.289 497.318 196.47 498.55V498.55Z" fill="black"/>
<path d="M149.66 511.88V495.53L147.21 495.38C148.27 500.05 145.72 511.47 145.72 511.47C121.62 514.87 111.24 505.38 107.58 500.47C106.926 499.625 106.363 498.713 105.9 497.75L115.67 442.75L117.97 361.75L121.5 347.55L122.31 340.73V340.65H122.4L124.89 341.72L139.8 348.17L156.74 335.38L156.98 335.19L157.83 334.55L159.23 335.68L162.71 338.47L173.88 410.57C173.88 410.57 193.25 466.1 196.88 488.51C197.02 489.4 197.14 490.23 197.23 491.01C199.59 511.5 149.66 511.88 149.66 511.88Z" fill="#E1E7EF"/>
<path d="M141.62 351.23C142.415 351.23 143.06 350.585 143.06 349.79C143.06 348.995 142.415 348.35 141.62 348.35C140.825 348.35 140.18 348.995 140.18 349.79C140.18 350.585 140.825 351.23 141.62 351.23Z" fill="#67647E"/>
<path d="M142.28 364.37C143.075 364.37 143.72 363.725 143.72 362.93C143.72 362.135 143.075 361.49 142.28 361.49C141.485 361.49 140.84 362.135 140.84 362.93C140.84 363.725 141.485 364.37 142.28 364.37Z" fill="#67647E"/>
<path d="M143.72 385.63C144.515 385.63 145.16 384.985 145.16 384.19C145.16 383.395 144.515 382.75 143.72 382.75C142.925 382.75 142.28 383.395 142.28 384.19C142.28 384.985 142.925 385.63 143.72 385.63Z" fill="#67647E"/>
<path d="M146.1 408.54C146.895 408.54 147.54 407.895 147.54 407.1C147.54 406.305 146.895 405.66 146.1 405.66C145.305 405.66 144.66 406.305 144.66 407.1C144.66 407.895 145.305 408.54 146.1 408.54Z" fill="#67647E"/>
<path d="M147.54 430.06C148.335 430.06 148.98 429.415 148.98 428.62C148.98 427.825 148.335 427.18 147.54 427.18C146.745 427.18 146.1 427.825 146.1 428.62C146.1 429.415 146.745 430.06 147.54 430.06Z" fill="#67647E"/>
<path d="M148.98 452.97C149.775 452.97 150.42 452.325 150.42 451.53C150.42 450.735 149.775 450.09 148.98 450.09C148.185 450.09 147.54 450.735 147.54 451.53C147.54 452.325 148.185 452.97 148.98 452.97Z" fill="#67647E"/>
<path d="M148.4 475.63C149.195 475.63 149.84 474.985 149.84 474.19C149.84 473.395 149.195 472.75 148.4 472.75C147.605 472.75 146.96 473.395 146.96 474.19C146.96 474.985 147.605 475.63 148.4 475.63Z" fill="#67647E"/>
<path opacity="0.1" d="M123.27 450.78C123.27 450.78 121.66 471.85 118.71 477.98C115.76 484.11 114.44 501.3 114.44 501.3L107.58 500.52C106.926 499.675 106.363 498.763 105.9 497.8L115.67 442.8L117.97 361.8L121.5 347.6L122.31 340.78H122.41C122.79 340.595 123.207 340.499 123.63 340.499C124.053 340.499 124.47 340.595 124.85 340.78L125.18 340.95C125.08 341.23 124.98 341.52 124.9 341.81C122.22 350.19 121.22 365.63 121.22 365.63C121.22 365.63 125.06 393.88 125.49 407.02C125.92 420.16 123.27 450.78 123.27 450.78Z" fill="black"/>
<path opacity="0.1" d="M106.4 497.21C106.322 497.386 106.232 497.557 106.13 497.72C103.47 502.22 96.73 505.07 94.68 505.86C94.29 505.17 94.07 504.76 94.07 504.76L95.5 498.08L103.03 495.02C104.221 495.641 105.349 496.374 106.4 497.21Z" fill="black"/>
<path d="M88.16 389.69L81.92 393.41L76.23 418.71C76.23 418.71 69.11 440.16 74.58 455.49C80.05 470.82 83.23 479.58 83.23 479.58C83.23 479.58 85.42 496.99 88.71 498.41C92 499.83 93.42 500.6 93.42 500.6L94.05 504.78C94.05 504.78 102.96 501.78 106.12 496.43C109.28 491.08 103.8 477.85 103.8 477.85C103.8 477.85 99.09 466.57 100.29 461.32C101.49 456.07 97.89 442.32 97.89 441.94C97.89 441.56 97.56 434.27 100.18 428.63C102.8 422.99 101.06 420.63 101.06 420.63L99.42 404.53L88.16 389.69Z" fill="#303D5C"/>
<path opacity="0.1" d="M196.99 493.78C196.99 493.78 180.46 500.02 175.2 494.55C169.94 489.08 170.49 463.45 170.49 463.45C170.49 463.45 165.49 416.16 162.28 408.38C159.07 400.6 160.75 344.55 160.75 344.55C160.75 344.55 158.61 337.3 156.75 335.41C156.633 335.285 156.502 335.175 156.36 335.08L156.99 335.22L159.24 335.71L162.72 338.5L173.89 410.6C173.89 410.6 193.26 466.13 196.89 488.54L196.99 493.78Z" fill="black"/>
<path opacity="0.1" d="M216.05 495.46H215.86C213.79 495.73 195.41 497.95 195.34 494.12C195.338 493.679 195.361 493.238 195.41 492.8L212.41 491.05L215.78 494.52C215.84 494.74 215.89 494.94 215.94 495.09L216.05 495.46Z" fill="black"/>
<path d="M198.42 364.36L210.5 370.66C210.5 370.66 220.5 396.66 222.17 407.87C222.17 407.87 229.62 437.78 224.47 450.09C219.32 462.4 219.77 486.81 219.77 486.81C219.77 486.81 216.77 491.3 215.6 490.09C214.43 488.88 216.05 494.78 216.05 494.78C216.05 494.78 195.42 497.52 195.33 493.47C195.24 489.42 200.05 470.06 200.05 470.06C200.05 470.06 201.36 423.96 199.5 416.73C197.64 409.5 198.42 364.36 198.42 364.36Z" fill="#303D5C"/>
<path opacity="0.1" d="M162.39 413.45C162.39 413.45 155.61 430.09 153.39 431.19C151.17 432.29 153.82 436.66 153.82 436.66C153.82 436.66 166.23 419.36 162.39 413.45Z" fill="black"/>
<path opacity="0.1" d="M158.34 355.09C158.42 354.77 150.24 363.09 148.05 364.36C145.86 365.63 156.05 364.29 158.34 355.09Z" fill="black"/>
<path opacity="0.1" d="M135.57 412.14C135.57 412.14 123.09 420.21 124.73 423.4C126.37 426.59 135.57 412.14 135.57 412.14Z" fill="black"/>
<path opacity="0.1" d="M158.23 529.94C158.23 529.94 168.86 536.78 185.39 538.48L158.23 529.94Z" fill="black"/>
<path opacity="0.1" d="M132.72 546.37C132.72 546.37 142.58 558.78 147.05 559.07C151.52 559.36 132.72 546.37 132.72 546.37Z" fill="black"/>
<path opacity="0.1" d="M146.52 594.87C146.08 595.09 140.93 606.04 135.68 606.37C130.43 606.7 146.52 594.87 146.52 594.87Z" fill="black"/>
<path opacity="0.1" d="M192.17 618.85C192.17 618.85 201.94 616.66 204.11 623.67C204.11 623.67 203.45 621.48 192.17 618.85Z" fill="black"/>
<path opacity="0.1" d="M185.61 658.92C185.61 658.92 197.43 656.51 199.95 659.8C202.47 663.09 185.61 658.92 185.61 658.92Z" fill="black"/>
<path opacity="0.1" d="M152.14 664.5C152.14 664.61 140.14 666.91 140.57 668.45C141 669.99 153.42 669.76 153.85 667.35C153.933 667.05 153.955 666.737 153.913 666.429C153.872 666.121 153.768 665.824 153.608 665.557C153.448 665.291 153.235 665.059 152.983 664.878C152.73 664.696 152.444 664.567 152.14 664.5V664.5Z" fill="black"/>
<path opacity="0.1" d="M181.66 674.91C181.66 674.91 201.45 672.5 200.2 676.66C198.95 680.82 181.66 674.91 181.66 674.91Z" fill="black"/>
<path opacity="0.1" d="M78.05 431.19C78.16 431.52 91.05 433.27 92.83 437.43C92.83 437.43 80.13 431.52 78.16 431.52" fill="black"/>
<path opacity="0.1" d="M96.26 465.02C96.26 465.02 85.53 468.41 86.26 473.56C86.99 478.71 85.21 471.16 96.26 465.02Z" fill="black"/>
<path opacity="0.1" d="M91.26 491.08C91.26 491.08 95.17 485.71 98.89 486.7C102.61 487.69 91.26 491.08 91.26 491.08Z" fill="black"/>
<path opacity="0.1" d="M152.55 288.96C152.172 289.326 151.748 289.642 151.29 289.9C148.18 291.7 147.29 294.48 145.85 297.68C144.49 300.61 142.97 303.68 140.21 305.38C136.65 307.53 131.95 306.74 128.21 308.61C126.57 309.474 125.223 310.806 124.342 312.437C123.461 314.068 123.084 315.924 123.26 317.77C123.479 319.191 123.813 320.593 124.26 321.96C125.11 324.919 125.491 327.993 125.39 331.07C125.4 331.16 125.4 331.25 125.39 331.34C122.222 329.753 119.422 327.518 117.173 324.779C114.924 322.04 113.275 318.86 112.334 315.443C111.393 312.027 111.181 308.451 111.711 304.947C112.241 301.443 113.501 298.089 115.41 295.104C117.319 292.118 119.835 289.567 122.793 287.616C125.751 285.665 129.086 284.358 132.583 283.778C136.079 283.199 139.657 283.361 143.087 284.254C146.516 285.146 149.72 286.75 152.49 288.96H152.55Z" fill="black"/>
<path d="M151.89 281.35C149.11 275.51 143.07 271.81 136.89 270.01C132.15 268.64 127 268.19 122.29 269.7C119.656 270.691 117.105 271.888 114.66 273.28C109.97 275.65 104.81 277.53 101.28 281.42C100.824 281.826 100.468 282.331 100.237 282.896C100.007 283.461 99.9083 284.071 99.95 284.68C100.263 285.534 100.708 286.334 101.27 287.05C102.27 288.83 102.01 291.05 101.34 293.05C100.67 295.05 99.64 296.78 99.16 298.77C98.68 300.76 98.87 303.08 100.34 304.5C101.046 305.064 101.78 305.591 102.54 306.08C103.351 306.771 104.061 307.572 104.65 308.46L108.82 314.17C110.78 316.706 112.53 319.398 114.05 322.22C114.946 324.355 116.03 326.407 117.29 328.35C118.68 330.2 120.85 331.68 123.16 331.48C123.337 331.485 123.513 331.447 123.673 331.371C123.833 331.294 123.972 331.181 124.08 331.04C124.166 330.859 124.207 330.66 124.2 330.46C124.29 327.383 123.909 324.311 123.07 321.35C122.597 319.986 122.243 318.584 122.01 317.16C121.839 315.309 122.223 313.449 123.113 311.818C124.004 310.186 125.36 308.857 127.01 308C130.73 306.13 135.43 306.93 139.01 304.78C141.77 303.11 143.29 300.01 144.65 297.07C146.14 293.87 146.97 291.07 150.09 289.29C153.21 287.51 153.43 284.42 151.89 281.35Z" fill="#303D5C"/>
<path opacity="0.1" d="M140.56 694.78C140.56 694.78 144.41 699.71 143.42 702.5C142.43 705.29 140.56 694.78 140.56 694.78Z" fill="black"/>
<path opacity="0.1" d="M192.9 707.07C192.9 707.07 193.76 700.46 197.21 700.4C200.66 700.34 200.82 700.04 203.45 701.05C206.08 702.06 208.55 703.64 207.77 703.88C206.99 704.12 203.23 700.09 199.4 702.14C197.002 703.453 194.811 705.115 192.9 707.07Z" fill="black"/>
<path opacity="0.1" d="M129.05 356.48L139.85 348.88C139.85 348.88 124 339.52 122.11 340.83C120.22 342.14 118.93 353.98 118.93 353.98L129.05 356.48Z" fill="black"/>
<path d="M128.97 355.98L139.81 348.22C139.81 348.22 123.96 338.86 122.07 340.22C120.18 341.58 118.89 354.02 118.89 354.02L128.97 355.98Z" fill="#E1E7EF"/>
<path opacity="0.03" d="M128.97 355.98L139.81 348.22C139.81 348.22 123.96 338.86 122.07 340.22C120.18 341.58 118.89 354.02 118.89 354.02L128.97 355.98Z" fill="black"/>
<path d="M123.87 340.26L123.54 340.1C123.061 339.863 122.525 339.767 121.993 339.823C121.462 339.88 120.958 340.087 120.54 340.42L88.05 366.78C88.05 366.78 80.99 376.55 81.97 393.41L101.05 420.57C101.05 420.57 103.24 411.37 105.87 413.12C105.87 413.12 109.59 460.2 105.87 466.99C102.15 473.78 100.5 499.18 100.5 499.18L113.09 500.6C113.09 500.6 114.41 483.41 117.36 477.28C120.31 471.15 121.93 450.09 121.93 450.09C121.93 450.09 124.59 419.47 124.15 406.33C123.71 393.19 119.88 364.95 119.88 364.95C119.88 364.95 120.98 348.39 123.87 340.26Z" fill="#303D5C"/>
<path opacity="0.1" d="M156.24 351.67L142.73 346.67C142.73 346.67 159.93 327.84 162.07 338.29L156.24 351.67Z" fill="black"/>
<path d="M156.24 351.01L142.73 346.01C142.73 346.01 159.93 327.17 162.07 337.62L156.24 351.01Z" fill="#E1E7EF"/>
<path opacity="0.03" d="M156.24 351.01L142.73 346.01C142.73 346.01 159.93 327.17 162.07 337.62L156.24 351.01Z" fill="black"/>
<path opacity="0.1" d="M155.8 335C155.994 334.964 156.194 335.003 156.36 335.11L155.8 335Z" fill="black"/>
<path d="M157.11 333.68L192.94 341.41C192.94 341.41 202.79 343.6 209.94 368.34C217.09 393.08 200.2 423.4 200.2 423.4L196.47 420.24L198.34 492.5C198.34 492.5 181.8 498.74 176.55 493.27C171.3 487.8 171.84 462.17 171.84 462.17C171.84 462.17 166.84 414.87 163.63 407.1C160.42 399.33 162.05 343.27 162.05 343.27C162.05 343.27 159.11 333.25 157.11 333.68Z" fill="#303D5C"/>
<path opacity="0.1" d="M189.88 379.78C189.37 380.25 188.78 402.11 190.97 418.78C192.315 428.917 194.39 438.943 197.18 448.78L193.93 382.1C193.93 382.1 191.41 378.3 189.88 379.78Z" fill="black"/>
<path opacity="0.1" d="M185.5 360.9C186.37 361.44 190.2 370.53 188.45 374.25C186.7 377.97 185.5 360.9 185.5 360.9Z" fill="black"/>
<path opacity="0.1" d="M151.68 281.35C149.928 277.881 147.185 275.01 143.8 273.1C146.31 274.893 148.34 277.276 149.71 280.04C151.24 283.11 150.8 286.19 147.79 287.93C144.78 289.67 143.79 292.5 142.35 295.71C140.99 298.64 139.48 301.71 136.71 303.41C133.15 305.56 128.45 304.77 124.71 306.64C123.069 307.503 121.722 308.835 120.84 310.466C119.959 312.098 119.583 313.954 119.76 315.8C119.98 317.221 120.315 318.622 120.76 319.99C121.61 322.949 121.991 326.023 121.89 329.1C121.902 329.301 121.86 329.501 121.77 329.68C121.663 329.822 121.524 329.935 121.364 330.012C121.203 330.088 121.027 330.126 120.85 330.12C119.922 330.187 118.993 330.014 118.15 329.62C118.762 330.226 119.493 330.7 120.296 331.012C121.1 331.323 121.959 331.465 122.82 331.43C122.955 331.446 123.092 331.431 123.221 331.387C123.35 331.342 123.466 331.269 123.563 331.173C123.659 331.076 123.732 330.96 123.777 330.831C123.821 330.702 123.836 330.565 123.82 330.43C123.919 327.354 123.541 324.281 122.7 321.32C122.227 319.956 121.873 318.554 121.64 317.13C121.464 315.284 121.841 313.428 122.722 311.797C123.603 310.166 124.95 308.834 126.59 307.97C130.3 306.1 135 306.9 138.59 304.75C141.36 303.08 142.87 299.98 144.23 297.04C145.73 293.84 146.56 291.04 149.67 289.26C152.78 287.48 153.21 284.42 151.68 281.35Z" fill="black"/>
<path opacity="0.1" d="M519.6 779.57C542.244 779.57 560.6 777.049 560.6 773.94C560.6 770.831 542.244 768.31 519.6 768.31C496.956 768.31 478.6 770.831 478.6 773.94C478.6 777.049 496.956 779.57 519.6 779.57Z" fill="#28C6D0"/>
<path d="M536.22 766.92C538.059 765.425 539.398 763.405 540.06 761.13C540.55 758.83 539.57 756.08 537.38 755.24C534.92 754.3 532.29 756 530.3 757.73C528.31 759.46 526.02 761.41 523.41 761.05C524.752 759.835 525.756 758.292 526.324 756.572C526.892 754.853 527.004 753.016 526.65 751.24C526.542 750.503 526.23 749.81 525.75 749.24C524.39 747.78 521.91 748.4 520.27 749.55C515.07 753.21 513.62 760.27 513.6 766.63C513.07 764.34 513.51 761.95 513.5 759.63C513.49 757.31 512.84 754.63 510.86 753.4C509.631 752.744 508.252 752.42 506.86 752.46C504.52 752.37 501.92 752.6 500.32 754.31C498.32 756.44 498.85 760 500.58 762.31C502.31 764.62 504.93 766.11 507.34 767.73C509.281 768.881 510.936 770.457 512.18 772.34C512.326 772.605 512.446 772.883 512.54 773.17H527.19C530.466 771.5 533.503 769.398 536.22 766.92V766.92Z" fill="#28C6D0"/>
<path opacity="0.1" d="M29.25 743.88C45.3436 743.88 58.39 742.089 58.39 739.88C58.39 737.671 45.3436 735.88 29.25 735.88C13.1564 735.88 0.109985 737.671 0.109985 739.88C0.109985 742.089 13.1564 743.88 29.25 743.88Z" fill="#28C6D0"/>
<path d="M37.21 726.78C39.0479 725.28 40.387 723.258 41.05 720.98C41.54 718.69 40.57 715.93 38.37 715.09C35.91 714.15 33.28 715.86 31.29 717.58C29.3 719.3 27.01 721.26 24.4 720.9C25.7439 719.686 26.7491 718.143 27.3171 716.423C27.8851 714.704 27.9964 712.866 27.64 711.09C27.5322 710.353 27.2205 709.66 26.74 709.09C25.38 707.63 22.9 708.25 21.27 709.4C16.07 713.06 14.62 720.12 14.59 726.48C14.06 724.19 14.5 721.8 14.49 719.48C14.48 717.16 13.83 714.48 11.85 713.25C10.6222 712.591 9.24272 712.267 7.85 712.31C5.51 712.22 2.91 712.46 1.31 714.16C-0.689997 716.29 -0.160002 719.85 1.57 722.16C3.3 724.47 5.92 725.97 8.34 727.58C10.2759 728.734 11.9268 730.31 13.17 732.19C13.3157 732.455 13.4362 732.733 13.53 733.02H28.18C31.4557 731.354 34.4928 729.255 37.21 726.78V726.78Z" fill="#28C6D0"/>
<path d="M734.9 654.38C734.9 654.38 740.4 661.57 732.37 672.38C724.34 683.19 717.72 692.38 720.37 699.15C720.37 699.15 732.48 679 742.37 678.72C752.26 678.44 745.75 666.5 734.9 654.38Z" fill="#28C6D0"/>
<path opacity="0.1" d="M734.9 654.38C735.381 655.076 735.761 655.837 736.03 656.64C745.65 667.94 750.77 678.49 741.52 678.75C732.91 679 722.58 694.4 720.1 698.29C720.18 698.593 720.281 698.89 720.4 699.18C720.4 699.18 732.51 679.03 742.4 678.75C752.29 678.47 745.75 666.5 734.9 654.38Z" fill="black"/>
<path d="M745.12 663.54C745.12 666.07 744.83 668.12 744.48 668.12C744.13 668.12 743.85 666.07 743.85 663.54C743.85 661.01 744.2 662.2 744.55 662.2C744.9 662.2 745.12 661.01 745.12 663.54Z" fill="#FFD037"/>
<path d="M748.62 666.56C746.4 667.77 744.47 668.5 744.3 668.19C744.13 667.88 745.79 666.66 748.01 665.45C750.23 664.24 749.36 665.12 749.53 665.45C749.7 665.78 750.84 665.35 748.62 666.56Z" fill="#FFD037"/>
<path d="M705.89 654.38C705.89 654.38 700.39 661.57 708.42 672.38C716.45 683.19 723.07 692.38 720.42 699.15C720.42 699.15 708.3 679 698.42 678.72C688.54 678.44 695.05 666.5 705.89 654.38Z" fill="#28C6D0"/>
<path opacity="0.1" d="M705.89 654.38C705.409 655.076 705.029 655.837 704.76 656.64C695.14 667.94 690.02 678.49 699.27 678.75C707.88 679 718.21 694.4 720.69 698.29C720.608 698.591 720.512 698.888 720.4 699.18C720.4 699.18 708.28 679.03 698.4 678.75C688.52 678.47 695.05 666.5 705.89 654.38Z" fill="black"/>
<path d="M695.67 663.54C695.67 666.07 695.96 668.12 696.31 668.12C696.66 668.12 696.94 666.07 696.94 663.54C696.94 661.01 696.59 662.2 696.24 662.2C695.89 662.2 695.67 661.01 695.67 663.54Z" fill="#FFD037"/>
<path d="M692.17 666.56C694.39 667.77 696.33 668.5 696.49 668.19C696.65 667.88 695 666.66 692.78 665.45C690.56 664.24 691.43 665.12 691.26 665.45C691.09 665.78 689.95 665.35 692.17 666.56Z" fill="#FFD037"/>
<path d="M697.42 698.24C697.42 698.24 712.78 697.76 717.42 694.47C722.06 691.18 741.05 687.24 742.2 692.47C743.35 697.7 765.28 718.76 747.94 718.9C730.6 719.04 707.65 716.2 703.03 713.39C698.41 710.58 697.42 698.24 697.42 698.24Z" fill="#A8A8A8"/>
<path opacity="0.2" d="M748.24 717.11C730.9 717.25 707.95 714.41 703.33 711.6C699.81 709.46 698.41 701.77 697.94 698.22H697.42C697.42 698.22 698.42 710.6 703.02 713.42C707.62 716.24 730.59 719.07 747.93 718.93C752.93 718.93 754.66 717.11 754.57 714.48C753.87 716.09 751.96 717.08 748.24 717.11Z" fill="black"/>
</g>
<defs>
<linearGradient id="paint0_linear" x1="592.95" y1="726.06" x2="592.95" y2="281.99" gradientUnits="userSpaceOnUse">
<stop stop-color="#808080" stop-opacity="0.25"/>
<stop offset="0.54" stop-color="#808080" stop-opacity="0.12"/>
<stop offset="1" stop-color="#808080" stop-opacity="0.1"/>
</linearGradient>
<linearGradient id="paint1_linear" x1="266134" y1="358791" x2="266134" y2="149608" gradientUnits="userSpaceOnUse">
<stop stop-color="#808080" stop-opacity="0.25"/>
<stop offset="0.54" stop-color="#808080" stop-opacity="0.12"/>
<stop offset="1" stop-color="#808080" stop-opacity="0.1"/>
</linearGradient>
<clipPath id="clip0">
<rect width="1008.11" height="779.57" fill="white"/>
</clipPath>
</defs>
</svg>
