<svg xmlns="http://www.w3.org/2000/svg" viewBox="0 0 189.47 276.99"><defs><style>.cls-1{fill:#1a1a1a;fill-rule:evenodd;}</style></defs><title>Asset 9</title><g id="Layer_2" data-name="Layer 2"><g id="Warstwa_1" data-name="Warstwa 1"><path class="cls-1" d="M19,5.53H60.09C76.58,2.4,100.44,0,100.44,0h0C81.23,3.88,60.58,13.2,43.35,16.7,40.6,27,36.87,47.45,37.18,63.81c6,2.93,15.92,4.09,20.85,4.88A117.83,117.83,0,0,0,101.2,54.35L105,69.86A124.33,124.33,0,0,1,60.35,84.42c-5.88-.94-17.35-4.71-21.7-8.32a38.37,38.37,0,0,1-1.47-12.29c-9.89,5.84-18.54,12.34-24.33,19.54,1.55-3.54,3.71-8.23,6.12-12.82v-65Zm106.46,0H170.5V31.44c-7.8-3.48-21-4.79-32.88-4.73a75.56,75.56,0,0,1,4.22,13.18c-2.84,4-11.58,13.53-25.26,22.88l-4.49-15.13a201.49,201.49,0,0,0,25.53-20.93A99.46,99.46,0,0,0,125.43,5.53Zm45.07,54a88.87,88.87,0,0,1-27.68,31.25l-16.88-.52,8.93,3.7c-15.13,7.56-34,17.19-50.37,24.4h0c6.84-1.62,17.25-5.51,27.44-9.24a22.61,22.61,0,0,1,.79,5.09c.56,14-11.48,21.76-22.9,23.43-8.2,1.2-15.59-4.83-19.31-13.51-3,1.12-5.76,2.07-8.28,2.81-.38,6.8-1.85,11.22-7.57,9.83-4.79-1.17-7.64-4.73-9.17-9.82A77.73,77.73,0,0,1,19,118.06v40.47c6.37-9.11,14.5-18,24.6-24.27.85,3,1.52,8.47,2.87,13.2,5.22,9.51,9,19.66,13.91,28.68,2.18,2.92,6.11,8,6.11,8A17,17,0,0,1,63,183c-3.63,11.39-7.51,24-12.8,36.24H72.06c.48-1.34,1-2.69,1.53-4-1.67-3.69-4.69-6.71-5.72-10.74.72-3.82,2.11-10.39,4.54-14.34,3.62,1.16,9.2,1.49,12.24.57,3.22,3.34,5.73,10.49,7.09,14.53-.72,1.12-1.37,2-2,2.89l-7.32,9.05c1.1-.22,2.35-.45,3.6-.66.47.92,1,1.83,1.48,2.73h13.41a122.42,122.42,0,0,1-6.63-33.3c-1.72.25-3.63.47-5.64.61,0,0,10.16-6.2,15-10l.68-.54,0,0h0c10.61-8.52,19.91-17.73,30.44-24a170.08,170.08,0,0,0,11.71-16.73h0c3.21-5.25,6.1-10.58,9.53-17L163.5,105l-5,4.71c1.07-8.52,2.33-17.91,2.66-26.71,1.57,4.47,7.61,21,9.34,28.84V59.5Zm18.35,118.94c-.06,0-11,1.85-18.35,5.72v35H128.84c.54-5.41,1.25-11.51,1.91-22l-28.38,6.58L121.65,192l.11.06c8-5.08,12.15-7.88,23.65-11.64,11.31-1.49,30-2.2,43.44-2ZM39,219.19H19V196.35a112.24,112.24,0,0,0-17.72.73c8.47-3.6,17.16-6.9,23.65-8.22a22.31,22.31,0,0,1,4.65,1.79h0c1.1.55,2.16,1.16,3.14,1.76l13.95,7.85-8.86-1.54A173.31,173.31,0,0,0,39,219.19ZM106,51.54l4.38,15.21c1.34-.81,2.64-1.64,3.91-2.46L110.05,49c-1.31.86-2.65,1.7-4,2.54Zm-15.88-44c-4.88,2.21-18.67,6.6-23.51,8.17-5.11,1.65-10.47,2.59-17.33,4l18.53,3.78S77,20.29,81.78,17.9C84.45,15.27,88.73,9.3,90.15,7.54Z"/><path class="cls-1" d="M1.76,251.28a12.85,12.85,0,0,0,3.35,1.5,11.56,11.56,0,0,0,3.24.51,4.18,4.18,0,0,0,2.54-.62A2,2,0,0,0,11.7,251a2.33,2.33,0,0,0-.1-.68,1.94,1.94,0,0,0-.38-.7,3.79,3.79,0,0,0-.77-.68,6.15,6.15,0,0,0-1.27-.68l-2.69-1.13a9.79,9.79,0,0,1-4.35-3.31,8.5,8.5,0,0,1-1.46-5,10.33,10.33,0,0,1,.63-3.57,8.57,8.57,0,0,1,1.91-3,9.25,9.25,0,0,1,3.23-2.09A12.46,12.46,0,0,1,11,229.4a16.54,16.54,0,0,1,2.48.18,17.08,17.08,0,0,1,2.23.49,13.06,13.06,0,0,1,1.92.67c.59.26,1.1.5,1.54.75l-1.63,3.62a6.42,6.42,0,0,0-1-.65,8.21,8.21,0,0,0-1.07-.46,6.31,6.31,0,0,0-1.05-.28,5.37,5.37,0,0,0-.93-.1,3.08,3.08,0,0,0-1.26.24,2.56,2.56,0,0,0-.91.61,2.38,2.38,0,0,0-.56.85,2.47,2.47,0,0,0-.19.94,2,2,0,0,0,.16.79,2.09,2.09,0,0,0,.54.74,5.87,5.87,0,0,0,1,.72,12.79,12.79,0,0,0,1.56.75l1.8.75a10.25,10.25,0,0,1,4.49,3.31,8.45,8.45,0,0,1,1.55,5.12,9.33,9.33,0,0,1-.75,3.77,8.18,8.18,0,0,1-2.22,3,10.63,10.63,0,0,1-3.66,1.95,16.92,16.92,0,0,1-5.08.69,19.31,19.31,0,0,1-2.67-.18,17.2,17.2,0,0,1-2.51-.53,16.77,16.77,0,0,1-2.42-.89A22,22,0,0,1,0,255l1.76-3.69Zm25.65-17.21V257.4h8.71V234.07H42.5v-4.24H21v4.24Zm16-4.23h12.9a13.4,13.4,0,0,1,4.37.65,8.67,8.67,0,0,1,3.13,1.82,7.39,7.39,0,0,1,1.89,2.8,9.9,9.9,0,0,1,.63,3.6,9.59,9.59,0,0,1-.93,4.31,7.19,7.19,0,0,1-2.77,3l4.7,11.41H57.48l-3.56-10H52.09v10h-8.7V229.84Zm9.23,14.21a4.82,4.82,0,0,0,1.91-.37A4.06,4.06,0,0,0,56,242.63a4.77,4.77,0,0,0,.9-1.61,6.73,6.73,0,0,0,0-4.1,4.81,4.81,0,0,0-.9-1.62,3.91,3.91,0,0,0-1.43-1,4.65,4.65,0,0,0-1.91-.38h-.51l0,10.17Zm22.66-7.25-8.22,20.62h3.8L72.51,253h8.82L83,257.42h9.83l-11-27.58H72.69l2.59,7Zm4.47,12H74.1l2.82-7.57,2.83,7.57Zm13.76-18.92H99l14.19,14.69V229.84h3.31V257.4H111L96.82,242.77V257.4H93.51V229.84Zm25,13.8a17.4,17.4,0,0,1,.41-3.79,14.51,14.51,0,0,1,1.21-3.41,13.49,13.49,0,0,1,2-2.87,12,12,0,0,1,2.64-2.22,12.36,12.36,0,0,1,3.27-1.44,14,14,0,0,1,3.85-.51,15.94,15.94,0,0,1,2.54.2,15.2,15.2,0,0,1,2.28.57,14.9,14.9,0,0,1,2,.83,16,16,0,0,1,1.65,1l-1.3,3.12a9.42,9.42,0,0,0-1.92-.85,7.53,7.53,0,0,0-2.23-.34,6.15,6.15,0,0,0-2.88.69,6.72,6.72,0,0,0-2.28,1.95,9.68,9.68,0,0,0-1.52,3.05,13.84,13.84,0,0,0-.55,4,13.48,13.48,0,0,0,.55,4,9.92,9.92,0,0,0,1.49,3.06,6.75,6.75,0,0,0,2.28,2,5.9,5.9,0,0,0,2.85.7V244h8.77l-1.56,3.5v7.54a10.44,10.44,0,0,1-1.82,1,16.55,16.55,0,0,1-2.42.9,21,21,0,0,1-2.83.64,18.42,18.42,0,0,1-3.09.24,13.31,13.31,0,0,1-5.56-1.12,12.29,12.29,0,0,1-4.2-3.05,13.69,13.69,0,0,1-2.66-4.53,16.19,16.19,0,0,1-.92-5.52Zm26-13.8h18.9v4.25H153.27v7.43h7.79v4.25h-7.79v7.38h10.2v4.25h-18.9V229.84Zm21,0h12.9a13.44,13.44,0,0,1,4.37.65,8.67,8.67,0,0,1,3.13,1.82,7.51,7.51,0,0,1,1.89,2.8,9.9,9.9,0,0,1,.63,3.6,9.59,9.59,0,0,1-.93,4.31,7.19,7.19,0,0,1-2.77,3l4.69,11.41h-9.82l-3.56-10h-1.83v10h-8.7V229.84Zm9.23,14.21a4.85,4.85,0,0,0,1.91-.37,4.06,4.06,0,0,0,1.43-1.05A4.77,4.77,0,0,0,179,241a6.93,6.93,0,0,0,0-4.1,4.81,4.81,0,0,0-.9-1.62,3.91,3.91,0,0,0-1.43-1,4.68,4.68,0,0,0-1.91-.38h-.52v10.17Z"/><path class="cls-1" d="M19.65,274.93a5.39,5.39,0,0,0,1.29.47,5.3,5.3,0,0,0,1.26.16,1.93,1.93,0,0,0,1-.19.58.58,0,0,0,.31-.52.6.6,0,0,0,0-.22.68.68,0,0,0-.14-.22,1.55,1.55,0,0,0-.3-.21,3.41,3.41,0,0,0-.49-.21l-1-.36a3.64,3.64,0,0,1-1.68-1,2.27,2.27,0,0,1-.57-1.55,2.58,2.58,0,0,1,.25-1.12,2.64,2.64,0,0,1,.73-.95,3.78,3.78,0,0,1,1.25-.65,5.52,5.52,0,0,1,1.77-.25,7.23,7.23,0,0,1,.95.06q.46.06.87.15a5.94,5.94,0,0,1,.74.22c.22.08.42.15.59.23l-.63,1.13a3.55,3.55,0,0,0-.39-.2,2.21,2.21,0,0,0-.41-.14l-.4-.09-.37,0a1.43,1.43,0,0,0-.48.07,1.06,1.06,0,0,0-.35.19.8.8,0,0,0-.22.27.65.65,0,0,0-.07.29.54.54,0,0,0,.06.25.64.64,0,0,0,.21.23,1.74,1.74,0,0,0,.39.23,4.66,4.66,0,0,0,.6.24l.7.23a4,4,0,0,1,1.73,1,2.31,2.31,0,0,1,.6,1.6,2.48,2.48,0,0,1-.29,1.18,2.64,2.64,0,0,1-.86.94,4.58,4.58,0,0,1-1.41.61,8.2,8.2,0,0,1-2,.22,8.81,8.81,0,0,1-1-.06,7.87,7.87,0,0,1-1-.17,8.14,8.14,0,0,1-.93-.27c-.31-.12-.61-.25-.92-.4l.68-1.16Zm25.22-.51-2.93-6.21h3.68l2.13,4.46,1.71-4.46H51l-2.59,6.21v2.43H44.87v-2.43Zm21.57.51a5.39,5.39,0,0,0,1.29.47,5.29,5.29,0,0,0,1.25.16,1.88,1.88,0,0,0,1-.19.58.58,0,0,0,.31-.52.89.89,0,0,0,0-.22.72.72,0,0,0-.15-.22,1.29,1.29,0,0,0-.3-.21,2.64,2.64,0,0,0-.49-.21l-1-.36a3.75,3.75,0,0,1-1.68-1A2.31,2.31,0,0,1,66,271a2.72,2.72,0,0,1,.24-1.12A2.79,2.79,0,0,1,67,269a3.78,3.78,0,0,1,1.25-.65,5.5,5.5,0,0,1,1.76-.25,7.27,7.27,0,0,1,1,.06c.31,0,.6.09.86.15a6.69,6.69,0,0,1,.75.22c.22.08.42.15.59.23l-.63,1.13a3.55,3.55,0,0,0-.39-.2,2.49,2.49,0,0,0-.41-.14l-.41-.09-.36,0a1.49,1.49,0,0,0-.49.07,1.17,1.17,0,0,0-.35.19.9.9,0,0,0-.21.27.67.67,0,0,0-.08.29.45.45,0,0,0,.07.25.7.7,0,0,0,.2.23,1.62,1.62,0,0,0,.4.23,4.66,4.66,0,0,0,.6.24l.69.23a4,4,0,0,1,1.74,1,2.3,2.3,0,0,1,.59,1.6,2.48,2.48,0,0,1-.28,1.18,2.74,2.74,0,0,1-.86.94,4.54,4.54,0,0,1-1.42.61,8.08,8.08,0,0,1-2,.22,8.52,8.52,0,0,1-1-.06,7.87,7.87,0,0,1-1-.17,7.11,7.11,0,0,1-.93-.27c-.31-.12-.62-.25-.92-.4l.68-1.16Zm24.83-5.39H88.81v-1.33H97.1v1.33H94.63v7.31H91.27v-7.31Zm21.1-1.33h7.3v1.33h-3.93v2.34h3v1.33h-3v2.31h3.94v1.33h-7.3v-8.64Zm23,0h2.38l3.26,4.53,3.11-4.53h2.31v8.64h-3.35v-4.41L139.9,277l-3.21-4.52v4.41h-1.28v-8.64Zm27.4,6.72a5.39,5.39,0,0,0,1.29.47,5.29,5.29,0,0,0,1.25.16,1.88,1.88,0,0,0,1-.19.58.58,0,0,0,.31-.52.89.89,0,0,0,0-.22.72.72,0,0,0-.15-.22,1.29,1.29,0,0,0-.3-.21,3,3,0,0,0-.49-.21l-1-.36a3.75,3.75,0,0,1-1.68-1,2.31,2.31,0,0,1-.56-1.55,2.72,2.72,0,0,1,.24-1.12,2.79,2.79,0,0,1,.74-.95,3.78,3.78,0,0,1,1.25-.65,5.5,5.5,0,0,1,1.76-.25,7.27,7.27,0,0,1,1,.06c.31,0,.6.09.86.15a6.69,6.69,0,0,1,.75.22c.22.08.42.15.59.23l-.63,1.13a3.55,3.55,0,0,0-.39-.2,2.49,2.49,0,0,0-.41-.14l-.41-.09-.36,0a1.49,1.49,0,0,0-.49.07,1.17,1.17,0,0,0-.35.19.9.9,0,0,0-.21.27.67.67,0,0,0-.08.29.45.45,0,0,0,.07.25.53.53,0,0,0,.2.23,1.74,1.74,0,0,0,.39.23,5.56,5.56,0,0,0,.61.24l.69.23a3.88,3.88,0,0,1,1.73,1,2.26,2.26,0,0,1,.6,1.6,2.48,2.48,0,0,1-.28,1.18,2.74,2.74,0,0,1-.86.94,4.54,4.54,0,0,1-1.42.61,8.08,8.08,0,0,1-2,.22,8.52,8.52,0,0,1-1-.06,7.87,7.87,0,0,1-1-.17,7.11,7.11,0,0,1-.93-.27c-.31-.12-.62-.25-.92-.4Z"/></g></g></svg>