<svg width="190" height="48" viewBox="0 0 190 48" fill="none" xmlns="http://www.w3.org/2000/svg">
<path fill-rule="evenodd" clip-rule="evenodd" d="M1.76 22.28C2.79914 22.9377 3.92731 23.4429 5.11 23.78C6.16027 24.1031 7.25125 24.2749 8.35 24.29C9.24118 24.3603 10.1314 24.143 10.89 23.67C11.1499 23.4778 11.3594 23.2255 11.5005 22.9347C11.6415 22.6438 11.71 22.3231 11.7 22C11.7005 21.7696 11.6668 21.5405 11.6 21.32C11.5231 21.0629 11.3937 20.8245 11.22 20.62C10.9954 20.3594 10.7363 20.1307 10.45 19.94C10.0548 19.6644 9.62851 19.4361 9.18 19.26L6.49 18.13C4.75515 17.4621 3.24633 16.314 2.14 14.82C1.14208 13.3472 0.631425 11.5984 0.68 9.82002C0.677919 8.60218 0.891203 7.39357 1.31 6.25001C1.72989 5.12745 2.38056 4.10545 3.22 3.25001C4.13829 2.33467 5.23875 1.62261 6.45 1.16001C7.90614 0.625685 9.44925 0.367926 11 0.400004C11.83 0.397693 12.659 0.457871 13.48 0.580012C14.2334 0.693423 14.9784 0.857128 15.71 1.07002C16.3664 1.24311 17.0084 1.46712 17.63 1.74002C18.22 2.00002 18.73 2.24002 19.17 2.49002L17.54 6.11001C17.2276 5.86278 16.8928 5.64518 16.54 5.46002C16.1947 5.28155 15.8371 5.12782 15.47 5.00001C15.1287 4.87666 14.7774 4.78298 14.42 4.72001C14.1135 4.65969 13.8023 4.62623 13.49 4.62001C13.0578 4.6107 12.6285 4.69247 12.23 4.86001C11.8862 4.9953 11.5758 5.20339 11.32 5.47001C11.0742 5.70964 10.8832 5.99962 10.76 6.32002C10.6359 6.61793 10.5713 6.93727 10.57 7.26C10.5692 7.53147 10.6236 7.80027 10.73 8.05001C10.8531 8.33358 11.0375 8.58631 11.27 8.79C11.5772 9.06442 11.9123 9.30575 12.27 9.51C12.7725 9.79494 13.2937 10.0455 13.83 10.26L15.63 11.01C17.4039 11.677 18.9581 12.8228 20.12 14.32C21.1775 15.8138 21.7214 17.6105 21.67 19.44C21.6844 20.7351 21.429 22.019 20.92 23.21C20.4211 24.3677 19.6613 25.3944 18.7 26.21C17.6199 27.094 16.3762 27.7566 15.04 28.16C13.3915 28.6467 11.6786 28.8794 9.96 28.85C9.06691 28.8518 8.17477 28.7917 7.29 28.67C6.44131 28.5561 5.60231 28.3789 4.78 28.14C3.95169 27.9059 3.14263 27.6083 2.36 27.25C1.54875 26.8815 0.760628 26.4641 0 26L1.76 22.31V22.28ZM27.41 5.07002V28.4H36.12V5.07002H42.5V0.830012H21V5.07002H27.41ZM43.41 0.840006H56.31C57.7926 0.81339 59.2693 1.03305 60.68 1.49002C61.8398 1.86964 62.9064 2.48982 63.81 3.31001C64.6477 4.0849 65.2946 5.04327 65.7 6.11001C66.1316 7.26051 66.3452 8.48132 66.33 9.71002C66.359 11.1994 66.0405 12.6751 65.4 14.02C64.786 15.2667 63.8239 16.3087 62.63 17.02L67.33 28.43H57.48L53.92 18.43H52.09V28.43H43.39V0.840006H43.41ZM52.64 15.05C53.2952 15.0578 53.9451 14.9319 54.55 14.68C55.1054 14.4423 55.6008 14.0835 56 13.63C56.4019 13.157 56.7076 12.6101 56.9 12.02C57.3264 10.6866 57.3264 9.25341 56.9 7.92001C56.7078 7.32677 56.4022 6.77657 56 6.30001C55.6047 5.86321 55.1159 5.52137 54.57 5.30001C53.9673 5.03995 53.3164 4.91044 52.66 4.92001H52.15V15.09L52.64 15.05ZM75.3 7.80001L67.08 28.42H70.88L72.51 24H81.33L83 28.42H92.83L81.83 0.840006H72.69L75.28 7.84001L75.3 7.80001ZM79.77 19.8H74.1L76.92 12.23L79.75 19.8H79.77ZM93.53 0.880015H99L113.19 15.57V0.840006H116.5V28.4H111L96.82 13.77V28.4H93.51V0.840006L93.53 0.880015ZM118.53 14.68C118.527 13.4055 118.665 12.1345 118.94 10.89C119.199 9.70731 119.606 8.56173 120.15 7.48001C120.689 6.44059 121.362 5.47582 122.15 4.61001C122.918 3.74674 123.808 2.99901 124.79 2.39001C125.805 1.75416 126.906 1.26909 128.06 0.950007C129.313 0.601968 130.609 0.430323 131.91 0.440012C132.761 0.438798 133.61 0.505675 134.45 0.640009C135.224 0.770882 135.986 0.961459 136.73 1.21002C137.416 1.43781 138.084 1.7152 138.73 2.04C139.3 2.33984 139.851 2.67378 140.38 3.04L139.08 6.16001C138.474 5.80601 137.83 5.5209 137.16 5.31001C136.438 5.08534 135.686 4.97073 134.93 4.97001C133.928 4.96199 132.939 5.19885 132.05 5.66001C131.153 6.12989 130.373 6.7965 129.77 7.61001C129.087 8.52879 128.572 9.56146 128.25 10.66C127.872 11.9593 127.687 13.307 127.7 14.66C127.681 16.0134 127.867 17.3619 128.25 18.66C128.567 19.7582 129.071 20.7935 129.74 21.72C130.338 22.551 131.118 23.2349 132.02 23.72C132.896 24.1897 133.876 24.4304 134.87 24.42V15H143.64L142.08 18.5V26.04C141.508 26.433 140.898 26.768 140.26 27.04C139.478 27.4026 138.669 27.7035 137.84 27.94C136.913 28.2183 135.967 28.4322 135.01 28.58C133.989 28.7467 132.955 28.827 131.92 28.82C130.008 28.8505 128.111 28.4685 126.36 27.7C124.759 26.994 123.327 25.9541 122.16 24.65C120.989 23.3259 120.086 21.7876 119.5 20.12C118.875 18.3474 118.564 16.4795 118.58 14.6L118.53 14.68ZM144.53 0.880015H163.43V5.13001H153.27V12.56H161.06V16.81H153.27V24.19H163.47V28.44H144.57V0.840006L144.53 0.880015ZM165.53 0.880015H178.43C179.913 0.854137 181.389 1.07376 182.8 1.53001C183.96 1.90963 185.026 2.52983 185.93 3.35002C186.764 4.1277 187.411 5.08525 187.82 6.15C188.252 7.30051 188.465 8.52131 188.45 9.75001C188.479 11.2394 188.161 12.7151 187.52 14.06C186.906 15.3067 185.944 16.3487 184.75 17.06L189.44 28.47H179.62L176.06 18.47H174.23V28.47H165.53V0.840006V0.880015ZM174.76 15.09C175.415 15.0969 176.065 14.9711 176.67 14.72C177.218 14.4797 177.707 14.1211 178.1 13.67C178.509 13.1792 178.815 12.6113 179 12C179.414 10.6646 179.414 9.23539 179 7.9C178.808 7.30677 178.502 6.75656 178.1 6.28001C177.705 5.84321 177.216 5.50136 176.67 5.28001C176.067 5.02081 175.416 4.89134 174.76 4.9H174.24V15.07L174.76 15.09Z" fill="#54BCCF"/>
<path fill-rule="evenodd" clip-rule="evenodd" d="M19.65 45.93C20.0582 46.141 20.4918 46.2989 20.94 46.4C21.3521 46.5036 21.7751 46.5574 22.2 46.56C22.5444 46.5873 22.8897 46.5217 23.2 46.37C23.2946 46.3203 23.3736 46.2454 23.4283 46.1536C23.483 46.0619 23.5113 45.9568 23.51 45.85C23.5236 45.7773 23.5236 45.7027 23.51 45.63C23.478 45.5483 23.4305 45.4736 23.37 45.41C23.2787 45.3284 23.178 45.2579 23.07 45.2C22.9124 45.1173 22.7486 45.0471 22.58 44.99L21.58 44.63C20.9393 44.4561 20.3584 44.1103 19.9 43.63C19.5222 43.2032 19.3187 42.6499 19.33 42.08C19.3282 41.6926 19.4137 41.3098 19.58 40.96C19.7474 40.5916 19.9971 40.2665 20.31 40.01C20.6823 39.7169 21.1063 39.4964 21.56 39.36C22.1325 39.181 22.7304 39.0966 23.33 39.11C23.6477 39.1091 23.965 39.1292 24.28 39.17C24.5867 39.21 24.8767 39.26 25.15 39.32C25.4012 39.3772 25.6484 39.4507 25.89 39.54C26.11 39.62 26.31 39.69 26.48 39.77L25.85 40.9C25.7243 40.8253 25.594 40.7586 25.46 40.7C25.3283 40.64 25.191 40.5931 25.05 40.56L24.65 40.47H24.28C24.1172 40.4658 23.9549 40.4895 23.8 40.54C23.6724 40.5806 23.5537 40.6451 23.45 40.73C23.3578 40.8027 23.2827 40.8949 23.23 41C23.1845 41.0899 23.1606 41.1892 23.16 41.29C23.1596 41.3769 23.1802 41.4627 23.22 41.54C23.27 41.6328 23.3422 41.7118 23.43 41.77C23.5495 41.8633 23.6806 41.9406 23.82 42C24.0142 42.0938 24.2147 42.174 24.42 42.24L25.12 42.47C25.772 42.6516 26.3673 42.9957 26.85 43.47C27.2472 43.907 27.4619 44.4796 27.45 45.07C27.4527 45.4813 27.3531 45.8868 27.16 46.25C26.9544 46.6288 26.6591 46.9516 26.3 47.19C25.8677 47.4713 25.391 47.6775 24.89 47.8C24.2349 47.9551 23.5632 48.029 22.89 48.02C22.5558 48.019 22.222 47.9989 21.89 47.96C21.5534 47.9249 21.2194 47.8681 20.89 47.79C20.575 47.7185 20.2644 47.6284 19.96 47.52C19.65 47.4 19.35 47.27 19.04 47.12L19.72 45.96L19.65 45.93ZM44.87 45.42L41.94 39.21H45.62L47.75 43.67L49.46 39.21H51L48.41 45.42V47.85H44.87V45.42ZM66.44 45.93C66.8482 46.141 67.2818 46.2989 67.73 46.4C68.1388 46.5029 68.5585 46.5566 68.98 46.56C69.3245 46.5898 69.6705 46.5241 69.98 46.37C70.0746 46.3203 70.1536 46.2454 70.2083 46.1536C70.263 46.0619 70.2913 45.9568 70.29 45.85C70.2991 45.7769 70.2991 45.703 70.29 45.63C70.2542 45.548 70.2033 45.4734 70.14 45.41C70.0505 45.3261 69.9495 45.2554 69.84 45.2C69.6842 45.1136 69.52 45.0433 69.35 44.99L68.35 44.63C67.7115 44.4511 67.1318 44.106 66.67 43.63C66.2401 43.1965 65.9992 42.6105 66 42C65.9996 41.6139 66.0814 41.2321 66.24 40.88C66.4288 40.5365 66.6877 40.2367 67 40C67.3723 39.7069 67.7963 39.4864 68.25 39.35C68.8193 39.1718 69.4137 39.0873 70.01 39.1C70.3444 39.097 70.6785 39.117 71.01 39.16C71.32 39.16 71.61 39.25 71.87 39.31C72.1241 39.3686 72.3745 39.4421 72.62 39.53C72.84 39.61 73.04 39.68 73.21 39.76L72.58 40.89C72.4543 40.8154 72.324 40.7486 72.19 40.69C72.0577 40.6315 71.9205 40.5846 71.78 40.55L71.37 40.46H71.01C70.8439 40.4558 70.6783 40.4795 70.52 40.53C70.3934 40.5729 70.275 40.6371 70.17 40.72C70.0834 40.7957 70.0121 40.8874 69.96 40.99C69.9117 41.0793 69.8844 41.1785 69.88 41.28C69.8783 41.3684 69.9026 41.4553 69.95 41.53C69.999 41.6204 70.0673 41.699 70.15 41.76C70.2717 41.8554 70.4064 41.9328 70.55 41.99C70.7442 42.0838 70.9447 42.164 71.15 42.23L71.84 42.46C72.4956 42.64 73.0944 42.9842 73.58 43.46C73.9745 43.898 74.1857 44.4708 74.17 45.06C74.1758 45.4704 74.0796 45.8759 73.89 46.24C73.6812 46.6165 73.3866 46.9386 73.03 47.18C72.595 47.463 72.1148 47.6693 71.61 47.79C70.9551 47.9464 70.2833 48.0203 69.61 48.01C69.2758 48.0096 68.9419 47.9896 68.61 47.95C68.2734 47.9149 67.9394 47.8581 67.61 47.78C67.2943 47.7112 66.9835 47.621 66.68 47.51C66.37 47.39 66.06 47.26 65.76 47.11L66.44 45.95V45.93ZM91.27 40.54H88.81V39.21H97.1V40.54H94.63V47.85H91.27V40.54ZM112.37 39.21H119.67V40.54H115.74V42.88H118.74V44.21H115.74V46.52H119.68V47.85H112.38V39.21H112.37ZM135.37 39.21H137.75L141.01 43.74L144.12 39.21H146.43V47.85H143.08V43.44L139.9 48L136.69 43.48V47.89H135.41V39.25L135.37 39.21ZM162.77 45.93C163.178 46.141 163.612 46.2989 164.06 46.4C164.469 46.5029 164.888 46.5566 165.31 46.56C165.654 46.5898 166.001 46.5241 166.31 46.37C166.405 46.3203 166.484 46.2454 166.538 46.1536C166.593 46.0619 166.621 45.9568 166.62 45.85C166.629 45.7769 166.629 45.703 166.62 45.63C166.584 45.548 166.533 45.4734 166.47 45.41C166.381 45.3261 166.28 45.2554 166.17 45.2C166.013 45.1156 165.849 45.0453 165.68 44.99L164.68 44.63C164.041 44.4511 163.462 44.106 163 43.63C162.629 43.1998 162.43 42.6479 162.44 42.08C162.44 41.6938 162.521 41.312 162.68 40.96C162.855 40.5932 163.107 40.269 163.42 40.01C163.792 39.7169 164.216 39.4964 164.67 39.36C165.239 39.1818 165.834 39.0973 166.43 39.11C166.764 39.107 167.098 39.127 167.43 39.17C167.74 39.17 168.03 39.26 168.29 39.32C168.544 39.3786 168.795 39.4521 169.04 39.54C169.26 39.62 169.46 39.69 169.63 39.77L169 40.9C168.874 40.8253 168.744 40.7586 168.61 40.7C168.478 40.6415 168.341 40.5947 168.2 40.56L167.79 40.47H167.43C167.264 40.4658 167.098 40.4895 166.94 40.54C166.813 40.5829 166.695 40.6471 166.59 40.73C166.503 40.8057 166.432 40.8974 166.38 41C166.332 41.0893 166.304 41.1885 166.3 41.29C166.298 41.3784 166.323 41.4653 166.37 41.54C166.413 41.6346 166.482 41.7145 166.57 41.77C166.689 41.8633 166.821 41.9406 166.96 42C167.158 42.0919 167.362 42.172 167.57 42.24L168.26 42.47C168.914 42.6466 169.511 42.9913 169.99 43.47C170.392 43.9042 170.607 44.4787 170.59 45.07C170.596 45.4804 170.5 45.8859 170.31 46.25C170.101 46.6265 169.807 46.9486 169.45 47.19C169.015 47.473 168.535 47.6793 168.03 47.8C167.375 47.9564 166.703 48.0303 166.03 48.02C165.696 48.0196 165.362 47.9996 165.03 47.96C164.693 47.9249 164.359 47.8681 164.03 47.79C163.714 47.7212 163.404 47.631 163.1 47.52C162.79 47.4 162.48 47.27 162.18 47.12L162.77 45.93Z" fill="#54BCCF"/>
</svg>
